<svg width="229" height="159" viewBox="0 0 229 159" fill="none" xmlns="http://www.w3.org/2000/svg">
<path d="M115.776 54C115.776 54 104.154 56.5932 101.084 58.4832C101.084 58.4832 96.6538 60.1534 94.0222 64.6806C94.0222 64.6806 91.7854 67.3178 89.8556 74.8778C89.8556 74.8778 84.461 74.5701 80.3821 78.0864C80.3821 78.0864 74.198 82.174 76.5225 90.3933C76.5225 90.3933 79.8997 99.4037 89.9872 96.4148C89.9872 96.4148 89.6802 101.953 95.031 104.546C95.031 104.546 99.5046 107.535 106.654 104.942C106.654 104.942 114.11 102.041 117.794 99.1399C117.794 99.1399 123.89 94.393 125.03 93.2502C125.03 93.2502 129.592 88.3275 133.846 86.833C133.846 86.833 138.583 85.6903 141.609 85.8661C141.609 85.8661 140.425 82.0861 142.311 80.0643L142.793 79.405C142.793 79.405 146.784 80.3719 150.249 77.471C150.249 77.471 156.039 72.0208 150.819 67.7574C150.819 67.7574 154.328 59.3183 146.96 57.2086C146.96 57.2086 144.548 56.5493 140.776 58.4832V54.7033L132.574 57.0328C132.574 57.0328 129.153 57.8239 129.065 61.9995V62.5269C129.065 62.5269 128.978 63.1862 127.837 62.9225C127.837 62.9225 123.715 62.2192 120.206 65.7355C120.206 65.7355 120.118 66.0871 119.46 65.6916C119.46 65.6916 116.566 64.5048 113.539 67.2739C113.539 67.2739 113.364 67.4497 113.408 66.9222L113.846 61.7797C113.846 61.7797 114.241 58.3074 114.68 57.0767C115.25 55.89 115.645 54.1758 115.776 54Z" fill="black"/>
<path fill-rule="evenodd" clip-rule="evenodd" d="M112.985 57.0374C112.985 57.0374 102.664 59.4206 99.3836 62.2452C99.3836 62.2452 96.1909 64.7167 94.2228 69.2184C94.2228 69.2184 93.042 71.8223 91.4675 77.6481C91.4675 77.6481 87.7062 76.7212 85.0821 78.1335C85.0821 78.1335 80.7086 79.7224 78.9591 84.1358C78.9591 84.1358 77.0785 89.123 80.14 92.6537C80.14 92.6537 82.5455 95.699 86.088 95.699C89.6306 95.699 91.1176 94.8604 92.9545 94.066C92.9545 94.066 92.3422 96.2286 92.3422 97.3319C92.3422 98.3912 92.6046 100.333 93.8729 101.613C95.1413 102.893 97.6342 104.791 101.264 104.791C104.894 104.791 110.886 102.054 111.192 101.701C111.192 101.701 117.315 98.7884 122.87 93.404C125.45 90.9325 128.03 88.5492 129.474 87.6665C129.474 87.6665 133.104 84.7978 139.62 84.5771C139.62 84.5771 138.877 80.7375 142.55 77.7363C142.55 77.7363 143.032 78.1777 145.087 78.1777C145.087 78.1777 146.749 78.0453 148.498 76.986C148.498 76.986 151.91 74.9559 151.079 71.1603C151.079 71.1603 150.86 69.6598 148.192 69.4391C148.192 69.4391 147.974 69.4832 148.149 69.1743C148.367 68.8653 150.51 66.7028 149.767 62.5541C149.767 62.5541 149.242 59.553 146.006 59.553C146.006 59.553 144.037 59.6854 142.725 60.3474C141.413 61.0536 141.063 61.0094 139.095 63.3927C139.095 63.3927 138.92 63.5251 138.92 63.0396C138.92 62.5541 139.052 58.0524 139.052 58.0524C139.052 58.0524 139.052 57.8318 138.833 57.8759C138.614 57.92 133.41 59.4647 133.41 59.4647C133.41 59.4647 131.835 59.9502 131.573 61.4067C131.31 62.8631 131.136 64.1871 131.092 64.7609L128.818 65.5553C128.818 65.5553 125.931 64.9815 124.182 66.0408C122.432 67.1 121.339 68.0709 120.77 68.7771C120.77 68.7771 120.639 68.9095 120.333 68.6888C120.027 68.4681 119.327 67.6296 117.534 67.9827C117.534 67.9827 115.828 68.2475 114.385 69.9687C114.385 69.9687 114.254 70.1452 114.079 70.0128C114.079 70.0128 113.379 69.5715 112.46 70.3218C111.586 71.0721 111.804 70.8514 111.586 71.0721C111.586 71.0721 111.411 71.2927 111.455 70.8073C111.498 70.3218 112.286 61.0977 112.286 61.0977C112.286 61.0977 112.417 59.8178 112.679 58.9351C112.942 58.0524 113.117 57.3022 113.117 57.3022C113.117 57.3022 113.379 56.9491 112.985 57.0374Z" fill="white"/>
<path d="M138.104 82.6804C138.104 82.6804 135.096 81.9894 131.291 82.8532C131.291 82.8532 127.132 83.7601 123.682 86.0924C121.647 87.4745 116.692 91.1456 113.904 92.5277C111.117 93.9097 109.967 94.6008 106.251 95.2918C106.251 95.2918 101.959 95.9828 100.676 93.8665C100.676 93.8665 98.951 91.3183 100.898 89.5908C100.898 89.5908 101.473 89.202 101.03 89.3316C101.03 89.3316 97.4911 90.2818 95.6772 92.9164C95.6772 92.9164 93.067 96.1124 95.633 99.3948C98.2432 102.677 103.773 101.598 103.773 101.598C103.773 101.598 108.817 100.906 113.241 97.9264C117.665 94.9463 119.788 93.2619 120.629 92.4845C121.47 91.7071 126.159 87.2585 126.956 86.7834C127.708 86.3083 130.141 84.3648 132.972 83.7601C135.804 83.1123 136.777 83.0691 138.104 83.0691C138.104 83.0691 139.387 83.0259 138.104 82.6804Z" fill="black"/>
<path fill-rule="evenodd" clip-rule="evenodd" d="M148.277 70.8438C148.532 70.3983 148.745 70.9776 148.745 70.9776C149.085 72.5374 148.192 73.8746 148.15 73.8746C146.79 76.1029 143.39 75.7464 143.39 75.7464C139.693 75.078 138.928 71.6017 138.928 71.6017C137.95 67.2784 140.118 64.1588 140.118 64.1588C142.965 60.6378 145.132 61.3062 145.132 61.3062C147.215 61.3062 147.555 63.713 147.555 63.713C147.682 66.6544 145.855 68.2589 145.855 68.2589C144.155 69.908 142.242 68.6156 142.242 68.6156C142.242 69.0167 142.752 70.2201 142.752 70.2201C143.56 72.1363 145.387 72.4039 145.387 72.4039C147.331 72.9447 147.979 71.505 148.229 70.9486C148.247 70.9088 148.263 70.8736 148.277 70.8438ZM144.367 65.9415C144.41 63.9361 142.88 64.649 142.88 64.649C141.478 65.6297 141.987 67.3231 141.987 67.2787C144.24 68.17 144.367 65.9415 144.367 65.9415Z" fill="black"/>
<path d="M137.072 60.0464C137.072 60.0464 134.499 60.8988 133.698 61.168C132.939 61.3924 132.939 62.4691 132.939 62.4691L132.897 65.7892L131.083 66.4622C131.083 66.4622 130.915 68.0325 130.915 68.4363C130.915 68.8401 131.21 68.7503 131.21 68.7503L132.897 68.2568C132.897 68.2568 132.602 75.7045 132.644 76.5121C132.644 77.4543 133.023 78.2619 133.023 78.2619C134.204 80.55 136.861 78.6657 136.861 78.6657C138.506 77.4992 138.506 74.224 138.506 74.224C138.506 73.8202 138.295 73.9996 138.295 73.9996C138.084 74.1342 137.62 74.2688 137.62 74.2688C136.777 74.4932 136.903 73.4612 136.903 73.4612C136.903 73.4612 137.03 67.7184 137.03 67.3146C137.03 66.9108 137.283 66.866 137.283 66.866L138.632 66.4173L138.674 63.9946L137.114 64.4432L137.072 60.0464Z" fill="black"/>
<path fill-rule="evenodd" clip-rule="evenodd" d="M128.87 80.6238C125.889 83.3047 123.036 82.1878 123.036 82.1878C121.12 81.2942 121.376 79.1942 121.376 79.1942C121.418 76.6026 124.314 75.6197 124.314 75.6197C121.291 73.9664 121.503 71.7772 121.503 71.7772C121.674 69.7217 123.42 68.6495 123.42 68.6495C125.506 66.9068 127.763 67.3536 127.763 67.3536C130.318 67.8004 129.977 69.8111 129.977 69.8111C129.764 71.4197 127.933 71.3304 127.933 71.3304C126.826 71.1963 126.4 69.6771 126.4 69.6771C126.358 69.409 126.017 69.3196 126.017 69.3196C124.782 69.3196 124.953 70.5259 124.953 70.5259C125.293 71.8665 126.486 71.9112 126.486 71.9112C126.911 72.0005 128.402 72.358 128.402 72.358C129.253 72.5367 130.148 73.3409 130.148 73.3409C131.34 74.4134 130.786 77.1387 130.786 77.1387C130.446 79.4622 128.87 80.6238 128.87 80.6238ZM127.422 76.7366C126.656 76.1111 124.995 75.9771 124.995 75.9771C124.399 76.7813 124.825 78.1219 124.825 78.0772C125.421 79.1942 126.997 78.4793 126.997 78.4793C128.359 77.4962 127.422 76.7366 127.422 76.7366Z" fill="black"/>
<path fill-rule="evenodd" clip-rule="evenodd" d="M95.6035 90.0877C95.6035 90.0877 97.4272 88.2054 98.0499 85.5352C98.7172 82.9088 99.4733 80.151 99.4733 80.151L103.165 79.1004L102.498 88.9496L106.412 88.0304C106.412 88.0304 108.725 87.4176 108.859 85.2289C108.992 83.0401 109.659 72.8846 109.659 72.8846C109.659 72.8846 110.06 67.4127 110.149 66.4935C110.238 65.5743 110.727 62.1161 111.127 60.8468C111.127 60.8468 111.528 59.796 110.638 60.1024C110.503 60.1439 110.255 60.2171 109.938 60.3099L108.973 60.5919L108.966 60.5941C107.598 60.993 105.878 61.494 105.478 61.6346C105.415 61.6634 105.32 61.703 105.2 61.7533C104.23 62.1598 101.576 63.2711 99.8736 65.1803C98.0861 67.1439 97.2309 68.9166 97.0541 69.2831L97.0269 69.339C97.0184 69.3724 96.9953 69.4234 96.9526 69.5177C96.7719 69.9166 96.2402 71.0904 94.9808 74.9857C93.424 79.8009 92.8902 81.2018 92.8902 81.2018C92.8902 81.2018 91.6003 79.4945 89.4207 79.5819C89.4207 79.5819 87.5525 79.6258 86.396 80.0636C85.1951 80.5013 82.6597 81.6832 81.3253 84.441C81.3253 84.441 79.6795 88.118 82.0814 90.8758C84.3915 93.5211 87.9311 93.3172 88.4682 93.2862L88.4787 93.2855L88.5311 93.2833C88.5501 93.2796 88.5977 93.2755 88.6706 93.2694H88.6716C89.4535 93.2022 93.1232 92.8888 95.6035 90.0877ZM100.674 75.7738C100.674 75.7738 102.32 70.2581 102.587 69.514C102.809 68.7699 103.388 67.369 103.388 67.369C104.099 65.837 104.544 65.7494 104.544 65.7494C105.122 65.3556 104.989 65.9247 104.9 66.0558C104.855 66.231 104.589 67.5443 104.411 68.4198C104.233 69.2953 103.61 75.3797 103.61 75.8612C103.61 76.2989 103.388 76.2989 103.388 76.2989L100.496 77.087C100.23 77.1307 100.363 76.8243 100.363 76.8243L100.674 75.7738ZM88.4866 86.0606C88.4866 88.118 90.3103 87.1112 90.9331 86.5858C91.5558 86.0606 92.3565 83.2152 92.3565 83.2152C91.7782 82.7774 90.7552 83.1715 90.7552 83.1715C88.6646 83.828 88.4866 86.0606 88.4866 86.0606Z" fill="black"/>
<path fill-rule="evenodd" clip-rule="evenodd" d="M119.461 82.7864C119.461 82.7864 115.918 87.3692 111.578 84.4937C108.699 82.6067 109.541 78.6531 109.541 78.698C109.993 74.9846 111.324 73.751 112.115 73.0181C112.175 72.9619 112.233 72.9087 112.287 72.8574C113.039 72.0935 114.147 72.2732 114.147 72.2732C114.147 72.2732 114.457 72.408 114.767 72.0037L114.825 71.917C115.173 71.3987 115.997 70.1721 117.999 70.3413C117.999 70.3413 119.771 70.2515 120.789 72.7676C120.789 72.7676 122.738 77.7544 119.461 82.7864ZM115.962 74.6096C115.962 74.6096 114.589 74.2503 114.147 75.1936C113.704 76.0923 112.951 78.698 114.988 80.4502C114.988 80.4502 116.538 81.3938 117.955 79.7315C117.955 79.7315 119.859 77.575 118.974 74.9241C118.974 74.9241 118.619 73.6211 117.601 73.6211C117.601 73.6211 117.158 73.5762 116.892 73.711C116.804 73.7561 116.671 73.9807 116.671 74.1155C116.671 74.2503 116.627 74.8792 115.962 74.6096Z" fill="black"/>
</svg>
