<svg width="229" height="159" viewBox="0 0 229 159" fill="none" xmlns="http://www.w3.org/2000/svg">
<path fill-rule="evenodd" clip-rule="evenodd" d="M93.7433 65L82.6554 94H84.5105L95.5984 65H93.7433ZM125.003 65L113.936 94H115.791L126.858 65H125.003ZM161.145 65L150.078 94H151.933L163 65H161.145ZM104.661 67.582C100.183 67.582 97.1549 70.2785 97.1549 74.2612C97.1549 75.7584 97.6701 77.0558 98.6262 78.0809C99.5508 79.0403 100.683 79.52 102.742 80.1508L105.023 80.855C107.746 81.6762 109.01 83.0197 109.01 84.9522C109.01 86.2368 108.49 87.2867 107.433 88.089C106.503 88.7949 105.621 89.0706 103.914 89.0706C101.528 89.0706 99.6881 88.4364 97.752 87.0434L96.4087 89.4334C98.7959 90.9092 101.105 91.5887 103.914 91.5887C106.03 91.5887 107.575 91.138 109.096 90.1589C111.16 88.8376 112.316 86.7489 112.316 84.5681C112.316 83.1059 111.734 81.5404 110.78 80.4496C109.826 79.3587 108.746 78.7373 106.708 78.1023L104.085 77.27C101.414 76.4122 100.396 75.4314 100.396 73.7064C100.396 71.4871 102.011 70.1001 104.81 70.1001C107.079 70.1001 108.501 70.8495 110.396 72.0846L111.74 69.8653C109.561 68.3869 107.311 67.582 104.661 67.582ZM130.696 68.0515V91.1192H133.788V80.0868H143.532V91.1192H146.688V68.0515H143.532V77.5048H133.788V68.0515H130.696ZM65 68.094V91.1617H71.3542C74.8512 91.1617 75.7587 90.9662 77.0475 90.4788C79.4049 89.5638 80.8429 87.19 80.8429 84.7813C80.8429 83.04 80.2357 81.1818 78.6466 79.9799C77.9379 79.4243 77.1728 79.0871 76.024 78.8276C78.4326 77.8913 79.8407 76.2686 79.8407 73.9196C79.8407 71.4579 78.1963 69.446 75.7467 68.6061C74.5219 68.1862 73.3552 68.094 68.7102 68.094H65ZM68.0279 70.6548H71.3542C72.5475 70.6548 73.2409 70.7239 73.8703 70.8895C75.4039 71.2805 76.4291 72.5122 76.4291 74.3038C76.4291 74.9337 76.296 75.3323 76.0666 75.8616C75.4141 77.3604 73.9923 77.8248 72.1006 77.8248H68.0279V70.6548ZM68.0279 80.3855H72.1645C73.3151 80.3855 74.2303 80.5067 74.8725 80.6416C76.4598 80.9651 77.6019 82.5408 77.6019 84.5466C77.6019 87.2653 76.3028 88.5798 73.0174 88.5798H68.0279V80.3855Z" fill="#231F20"/>
</svg>
