<svg width="229" height="159" viewBox="0 0 229 159" fill="none" xmlns="http://www.w3.org/2000/svg">
<path d="M114.867 76.1803C123.688 76.1803 130.093 66.1067 123.058 56.9677C113.817 50.0096 103.631 56.3446 103.631 65.0681C103.631 71.1954 108.672 76.1803 114.867 76.1803Z" fill="#2D2A26"/>
<path d="M123.163 73.9995C121.062 76.2842 117.282 78.5689 112.452 78.5689C108.672 78.5689 105.416 77.115 103.421 75.5572C91.1356 76.8035 82 78.6728 82 78.6728V83.5538H146.999V73.4802C146.999 73.3763 135.868 73.3763 123.163 73.9995Z" fill="#2D2A26"/>
<path d="M89.7503 98.8327V105H82V88.4453H89.7503V95.9112L94.2539 88.4453H103.471L96.7675 97.1014L103.156 105H94.3586L89.7503 98.8327Z" fill="#2D2A26"/>
<path d="M147 103.74C145.229 104.281 142.834 104.606 140.647 104.606C133.043 104.606 127.523 102.332 127.523 95.8357C127.523 89.9889 132.939 87.3904 140.23 87.3904C142.313 87.3904 144.917 87.6069 146.896 88.2566V93.995C145.438 93.0206 143.875 92.4792 141.688 92.4792C138.876 92.4792 136.064 93.8868 136.064 96.0522C136.064 98.1094 138.876 99.6252 141.688 99.6252C143.771 99.6252 145.334 98.9756 146.896 98.1094L147 103.74Z" fill="#2D2A26"/>
<path fill-rule="evenodd" clip-rule="evenodd" d="M120.649 87.8235H105.13V104.389H120.441C124.815 104.389 126.169 102.224 126.169 100.058C126.169 96.7019 123.67 96.377 121.066 96.1604C123.566 96.0522 125.961 94.7529 125.961 91.9377C125.961 89.4475 124.711 87.8235 120.649 87.8235ZM112.838 94.8613H116.691C118.15 94.8613 118.775 94.2117 118.775 93.2371C118.775 92.1543 118.15 91.613 116.796 91.613H112.838V94.8613ZM112.838 101.033H116.796C118.254 101.033 118.775 100.383 118.775 99.4087C118.775 98.4343 118.254 97.7847 116.796 97.7847H112.838V101.033Z" fill="#2D2A26"/>
</svg>
