<svg width="229" height="159" viewBox="0 0 229 159" fill="none" xmlns="http://www.w3.org/2000/svg">
<path d="M115.949 49.8487C116.188 49.8487 116.347 49.6076 116.347 49.3664C116.347 49.1252 116.188 48.884 115.949 48.884C115.711 48.884 115.552 49.1252 115.552 49.3664C115.552 49.6076 115.711 49.8487 115.949 49.8487Z" fill="black"/>
<path fill-rule="evenodd" clip-rule="evenodd" d="M106.561 53.2249C106.481 53.3054 106.401 53.3857 106.322 53.3054C106.269 53.3054 106.251 53.2339 106.222 53.1147C106.213 53.0803 106.204 53.0417 106.192 52.9998C106.184 52.9692 106.174 52.937 106.163 52.9033C106.401 52.5015 106.64 52.2603 106.958 52.1799C107.197 52.1799 107.356 52.1799 107.515 52.3406C107.595 51.9387 107.834 51.6172 108.232 51.5369C108.709 51.376 109.027 51.6975 109.107 52.0996C109.186 52.019 109.266 51.8584 109.345 51.6975C109.186 51.6172 109.027 51.4563 109.027 51.1348C109.027 50.8132 109.186 50.572 109.425 50.4917C109.823 50.4114 109.982 50.7329 109.982 51.1348H110.221C110.267 51.1348 110.306 51.1279 110.345 51.1143C110.392 51.0979 110.438 51.0713 110.493 51.0347C110.519 51.0171 110.548 50.9971 110.58 50.9749C110.615 50.9504 110.654 50.9233 110.698 50.8936C110.778 50.6523 110.937 50.572 111.175 50.6523C111.414 50.7329 111.414 50.9741 111.335 51.2151C111.295 51.376 111.235 51.5569 111.175 51.7378C111.116 51.9187 111.056 52.0996 111.016 52.2603C110.857 52.7427 110.778 53.2249 110.778 53.627C110.778 53.7649 110.804 53.8501 110.856 53.8979C110.895 53.9338 110.948 53.9485 111.016 53.9485C111.255 54.0288 111.494 53.7073 111.653 53.3857V53.2249V51.376C111.653 50.572 112.051 50.2505 112.528 50.2505C112.846 50.2505 113.006 50.4114 113.085 50.4917C113.165 50.2505 113.324 50.1702 113.483 50.1702C113.722 50.1702 113.801 50.3308 113.801 50.6523V52.9839C113.801 53.2249 113.801 53.4661 114.04 53.4661C114.147 53.4661 114.254 53.4297 114.337 53.3572C114.377 53.3218 114.412 53.2776 114.438 53.2249V48.8035C114.438 48.4016 114.597 48.2407 114.836 48.2407C115.074 48.2407 115.154 48.4016 115.154 48.7231V52.9033C115.154 53.1445 115.154 53.3857 115.393 53.3857C115.472 53.3857 115.631 53.3054 115.711 53.1445V50.6523C115.711 50.2505 115.87 50.0896 116.109 50.0896C116.347 50.0896 116.427 50.2505 116.427 50.572V52.9839C116.427 53.2249 116.427 53.4661 116.666 53.4661C116.745 53.4661 116.904 53.3857 116.984 53.2249V50.7329C116.984 50.4114 117.143 50.2505 117.382 50.2505C117.62 50.2505 117.7 50.4917 117.7 50.7329C117.859 50.4917 118.177 50.4114 118.496 50.4917C119.053 50.6523 119.053 51.1348 119.053 51.5369V53.7073C119.053 53.9485 119.132 54.1094 119.291 54.1094C119.321 54.1094 119.361 54.1094 119.404 54.1052C119.436 54.1023 119.468 54.0972 119.5 54.0884C119.542 54.0764 119.581 54.0579 119.61 54.0288V52.1799C119.61 51.5369 119.928 51.2151 120.405 51.2151L120.47 51.2312C120.776 51.3074 121.137 51.3975 121.36 51.6975C121.519 51.8584 121.519 52.0996 121.519 52.3406V52.6624C121.519 53.0642 121.36 53.3054 120.962 53.627C120.926 53.6638 120.881 53.7007 120.832 53.7375C120.774 53.781 120.709 53.8245 120.644 53.8679C120.525 53.9482 120.405 54.0288 120.326 54.1094V54.5112C120.326 54.8328 120.485 54.9131 120.644 54.9937C120.883 54.9937 121.042 54.8328 121.201 54.6721C121.444 54.4263 121.687 53.8054 121.895 53.2749C121.959 53.1111 122.02 52.9558 122.076 52.823C121.997 52.5015 121.917 52.0996 121.997 51.7778C122.076 51.376 122.394 51.2151 122.553 51.2957C122.872 51.376 122.872 51.6172 122.872 51.8584C122.872 51.9524 122.845 52.074 122.806 52.1909C122.779 52.2739 122.746 52.3545 122.713 52.4211C123.031 53.3857 123.27 54.1897 123.27 55.3955C123.27 55.8779 123.19 56.1995 122.951 56.521C122.792 56.7622 122.315 56.8425 121.917 56.6013C121.519 56.3601 121.44 55.9583 121.44 55.4758C121.44 55.1543 121.678 55.074 121.837 55.074C122.076 55.074 122.076 55.3152 122.076 55.5564C122.094 55.6091 122.107 55.6582 122.119 55.7024C122.163 55.8604 122.191 55.9583 122.315 55.9583C122.553 56.0386 122.553 55.6367 122.553 55.3152C122.623 54.6787 122.509 54.229 122.372 53.6921L122.315 53.4661C122.156 54.0288 121.837 54.6721 121.599 54.9937C121.201 55.4758 120.723 55.6367 120.326 55.4758C119.928 55.3152 119.689 54.9937 119.61 54.5916C119.45 54.6721 119.291 54.7524 119.132 54.7524C118.893 54.7524 118.416 54.6721 118.416 54.0288V51.6975C118.416 51.376 118.336 51.2151 118.098 51.2151C117.939 51.2151 117.859 51.376 117.78 51.5369V53.7876C117.78 54.1094 117.62 54.27 117.382 54.1897C117.223 54.1094 117.063 54.0288 117.063 53.7073C116.984 53.8682 116.745 54.0288 116.506 54.0288C116.268 54.0288 115.949 53.8682 115.79 53.5466C115.631 53.7073 115.393 53.8682 115.154 53.8682C114.915 53.8682 114.676 53.7876 114.517 53.5466C114.358 53.7073 114.119 53.9485 113.801 53.9485C113.562 53.9485 113.324 53.8682 113.165 53.627C113.085 53.8682 112.846 54.1094 112.449 54.1094C112.21 54.1897 111.971 54.0288 111.812 53.7876C111.494 54.1897 111.096 54.6721 110.618 54.6721C110.221 54.7524 109.982 54.4309 109.982 53.8682C109.902 53.1445 110.221 52.0996 110.38 51.6172C110.221 51.6975 110.141 51.6975 109.982 51.6975C109.902 52.0996 109.664 52.4211 109.345 52.5818V54.6721C109.266 55.3152 108.948 55.7976 108.47 55.8779C108.283 55.9409 108.145 55.8557 108.017 55.7773C107.982 55.7556 107.948 55.7344 107.913 55.717V57.0034C107.913 57.2446 107.754 57.4856 107.515 57.4856C107.277 57.4856 107.118 57.325 107.118 57.0034V53.4661C107.118 53.2249 107.118 53.0642 106.958 52.9839C106.799 52.9839 106.72 52.9839 106.561 53.2249ZM120.803 52.4209C120.803 52.2603 120.723 52.019 120.564 52.019C120.405 52.019 120.246 52.0994 120.246 52.4209C120.246 52.5015 120.246 53.0642 120.326 53.7073L120.564 53.4661C120.723 53.3054 120.803 53.0642 120.803 52.7427V52.4209ZM112.21 51.5369C112.21 51.2957 112.369 51.1348 112.528 51.0544C112.687 51.0544 112.846 51.1348 112.926 51.2153V53.2251C112.846 53.3857 112.687 53.5466 112.528 53.4661C112.289 53.4661 112.21 53.3054 112.21 52.9839V51.5369ZM108.47 53.0642C108.47 52.7427 108.311 52.5818 108.152 52.5818C108.03 52.5818 107.955 52.6755 107.891 52.7556C107.871 52.7805 107.852 52.804 107.834 52.823V54.9934C107.913 55.1543 107.993 55.2346 108.152 55.2346C108.311 55.2346 108.47 55.074 108.47 54.7524V53.0642Z" fill="black"/>
<path d="M115.552 75.2521C115.552 75.4933 115.79 75.7345 116.029 75.7345C116.268 75.7345 116.506 75.4933 116.506 75.2521C116.506 75.0109 116.268 74.7698 116.029 74.7698C115.711 74.7698 115.552 75.0109 115.552 75.2521Z" fill="black"/>
<path fill-rule="evenodd" clip-rule="evenodd" d="M122.474 77.3423C122.394 77.5029 122.315 77.5833 122.156 77.5833C121.997 77.5833 121.997 77.4226 121.997 77.1814V74.5286C121.997 74.207 121.837 74.0461 121.599 74.0461C121.36 74.0461 121.201 74.207 121.201 74.6089C121.042 74.5286 120.803 74.448 120.564 74.448C120.087 74.5286 119.689 74.8501 119.689 75.7344V77.9854C119.689 78.0312 119.689 78.0706 119.691 78.1074C119.693 78.1445 119.697 78.1787 119.704 78.2139C119.715 78.2654 119.735 78.3191 119.769 78.3872C119.689 78.5481 119.53 78.7893 119.371 78.7893C119.212 78.7893 119.132 78.6284 119.132 78.3069V74.6892C119.132 74.3677 118.973 74.207 118.734 74.207C118.496 74.207 118.336 74.3677 118.336 74.7698V75.7344C118.177 75.6541 118.018 75.5735 117.859 75.5735C117.382 75.6541 116.984 75.9756 116.984 76.7795V78.7087V79.0303C116.904 79.1912 116.745 79.3521 116.586 79.2715C116.347 79.2715 116.347 79.1108 116.347 78.7893V76.3774C116.347 76.0559 116.188 75.895 115.949 75.895C115.711 75.895 115.552 76.0559 115.552 76.4578V79.1108C115.472 79.2715 115.313 79.3521 115.154 79.3521C114.995 79.4324 114.995 79.2715 114.995 79.0303V77.1011C114.995 76.6187 114.836 76.2168 114.279 76.1362C114.04 76.1362 113.801 76.2168 113.483 76.3774C113.324 76.0559 113.085 75.9756 112.767 75.9756C112.596 75.9756 112.449 75.9985 112.311 76.02C112.193 76.0386 112.082 76.0559 111.971 76.0559C111.812 75.8147 111.494 75.6541 111.175 75.4932C110.698 75.3325 109.982 75.5735 110.062 76.4578V77.7441C109.942 77.8247 109.823 77.925 109.703 78.0254C109.584 78.126 109.465 78.2266 109.345 78.3069C109.186 78.3872 108.948 78.3872 108.788 78.2266C108.655 78.0918 108.578 77.8442 108.509 77.6257C108.496 77.5833 108.483 77.542 108.47 77.5029C108.709 77.4226 109.027 77.2617 109.266 77.1011C109.584 76.8599 109.823 76.6187 109.823 75.8147C109.823 74.9304 109.425 74.5286 108.788 74.3677C108.311 74.2874 107.675 74.5286 107.675 75.4128V77.5029C107.675 78.4678 108.152 78.7893 108.709 78.95C109.266 79.1108 109.664 78.8696 110.141 78.4678C110.221 79.2715 110.698 79.593 111.175 79.7539C111.812 79.9148 112.369 79.5127 112.369 78.8696V77.1011C112.369 76.9402 112.369 76.7795 112.289 76.6187H112.608C112.846 76.699 112.926 76.7795 112.926 77.1011V79.5127C112.926 79.8342 113.085 79.9951 113.324 79.9951C113.562 79.9951 113.722 79.8342 113.722 79.4324V77.0205C113.801 76.8599 113.96 76.7795 114.04 76.7795C114.199 76.7795 114.279 76.9402 114.279 77.1814V79.2715C114.279 79.9148 114.756 80.0754 115.074 80.0754C115.392 80.0754 115.631 79.8342 115.79 79.6736C115.949 79.9148 116.268 80.0754 116.506 79.9951C116.904 79.9951 117.143 79.7539 117.302 79.4324C117.461 79.6736 117.7 79.7539 117.939 79.7539C118.257 79.7539 118.496 79.4324 118.655 79.1912C118.814 79.4324 119.053 79.4324 119.291 79.4324C119.689 79.3521 119.928 79.0303 120.087 78.7087C120.246 78.8696 120.485 78.95 120.644 78.95C121.121 78.95 121.36 78.4678 121.44 78.2266C121.599 78.3872 121.837 78.3872 121.997 78.3872C122.394 78.3069 122.792 77.9854 122.792 77.4226C122.713 77.1814 122.553 77.1814 122.474 77.3423ZM108.47 75.4932C108.47 75.1716 108.55 75.0913 108.789 75.0913C109.027 75.0913 109.107 75.3325 109.107 75.6541C109.107 76.2168 109.027 76.458 108.789 76.6187C108.709 76.6992 108.629 76.7795 108.47 76.7795V75.4932ZM111.096 78.8699C111.255 78.8699 111.414 78.7893 111.414 78.4678V76.8601L111.413 76.8411L111.408 76.814C111.401 76.7798 111.388 76.7395 111.374 76.6992C111.354 76.6389 111.335 76.5786 111.335 76.5386C111.175 76.5386 111.016 76.458 110.937 76.3777C110.889 76.3777 110.842 76.4346 110.812 76.5146C110.791 76.5691 110.778 76.6343 110.778 76.6992V78.3071C110.778 78.6287 110.937 78.7893 111.096 78.8699ZM117.859 78.5481V77.1011C117.859 76.7795 117.939 76.6187 118.177 76.5383C118.251 76.5383 118.308 76.5383 118.355 76.5461C118.41 76.5554 118.453 76.5754 118.496 76.6187V78.709C118.426 78.7441 118.356 78.7949 118.293 78.8408C118.212 78.8994 118.142 78.95 118.098 78.95C117.939 78.95 117.859 78.8696 117.859 78.5481ZM120.564 77.6636C120.564 77.9851 120.644 78.0657 120.803 78.0657C120.941 78.0657 121.019 77.9443 121.142 77.7544L121.201 77.6636V77.5833V75.4126C121.121 75.3323 121.042 75.3323 120.883 75.3323C120.644 75.4126 120.564 75.5735 120.564 75.895V77.6636Z" fill="black"/>
<path d="M128.123 59.8172C128.123 59.576 128.044 59.4956 127.884 59.4956H127.646C127.646 59.4956 127.566 59.4956 127.566 59.576V60.1387C127.646 60.1387 127.725 60.1387 127.805 60.1387C127.964 60.1387 128.123 60.0583 128.123 59.8172Z" fill="black"/>
<path fill-rule="evenodd" clip-rule="evenodd" d="M122.474 62.309C122.633 63.0326 122.792 63.756 122.792 64.4797C122.792 65.7658 122.474 67.0522 121.997 68.0971C121.042 67.6952 119.61 67.2934 117.939 67.5344C117.143 66.007 118.575 64.1581 119.053 63.9972C119.769 64.3991 119.45 65.7658 118.575 66.4894C118.496 66.5698 118.336 66.811 118.814 66.7306C120.723 66.3285 121.121 64.8815 121.042 64.3188C121.36 64.3188 121.519 63.6757 121.201 63.113C121.758 63.2736 121.678 62.309 121.28 62.0678C121.917 62.0678 121.44 61.1835 121.121 60.9423C121.758 60.9423 121.201 60.2189 120.883 60.1384C121.36 59.9777 120.883 59.1738 120.326 59.1738C120.883 58.8522 120.007 58.4504 119.61 58.5307C119.689 58.4504 119.848 58.1286 119.61 57.968C119.212 57.5659 118.177 57.6464 117.62 58.2092C117.78 57.0837 116.427 56.0385 116.347 56.7621C115.949 56.36 115.154 56.1994 115.233 56.5209C114.915 56.2797 114.119 56.1994 114.279 56.5209C114.04 56.36 113.244 56.2797 113.403 56.6013C113.085 56.4404 112.369 56.4404 112.687 56.8425C112.449 56.7621 112.13 56.7621 111.732 56.8425C111.175 57.0031 111.255 57.0837 111.414 57.2443C110.619 57.3249 110.3 57.6464 110.221 57.7267C110.062 57.8071 109.982 58.2092 110.062 58.2092C111.494 58.0483 112.767 58.9326 112.926 59.1738C112.954 59.2299 112.972 59.2763 112.984 59.3129C113.006 59.381 113.006 59.415 113.006 59.415C113.006 59.415 112.846 59.6562 112.926 59.8168C112.931 59.8278 112.938 59.8383 112.944 59.8486C112.967 59.8835 112.996 59.9152 113.025 59.9462C113.113 60.0405 113.197 60.1303 113.085 60.2993L113.005 60.4057C112.764 60.7253 112.415 61.1874 112.13 61.9072C111.971 61.9875 111.812 62.0678 111.732 62.309C111.573 62.6306 111.892 62.8718 112.449 63.113C112.369 63.3542 112.369 63.5954 112.449 63.6757C112.528 63.756 112.21 64.56 112.13 64.7209C111.892 65.0424 112.051 65.2834 112.21 65.3639C112.289 65.3639 112.449 65.4443 112.369 65.5246C112.289 65.6052 112.369 65.7658 112.449 65.8461C112.289 66.1679 112.449 66.3285 112.528 66.4089C112.581 66.4626 112.528 66.6235 112.487 66.7485C112.474 66.7885 112.462 66.8249 112.455 66.853C112.451 66.8686 112.449 66.8818 112.449 66.8913C112.449 67.1325 112.687 67.5344 113.244 67.6149C113.483 67.6149 113.801 67.6952 113.96 67.6952C112.846 68.5795 112.528 70.2678 112.449 70.7502C112.051 71.2324 111.732 71.7148 111.494 72.1166C111.016 71.956 110.619 71.7148 110.221 71.4736V70.1874C110.221 70.1874 110.38 70.1069 110.459 69.7853C110.539 69.6247 110.539 69.3032 110.459 69.2226C110.483 69.1992 110.499 69.1894 110.513 69.1813C110.546 69.1618 110.562 69.152 110.619 68.9814C110.619 68.8207 110.619 68.5795 110.539 68.4992C110.698 68.4186 110.698 67.7756 110.459 67.7756C110.539 67.6952 110.539 67.2934 110.38 67.1325C110.3 66.9716 109.584 66.9716 109.584 66.9716V66.6501C109.584 66.6501 110.459 66.0873 110.459 65.2834C110.459 64.3991 110.221 62.7109 109.186 60.5405V66.2482C109.186 66.2482 108.55 66.0873 108.391 65.3639C108.238 64.5927 108.598 61.8981 108.698 61.538C107.991 63.6066 107.835 64.6445 107.993 65.4443C108.072 66.2482 109.027 66.7306 109.027 66.7306V66.9716C109.027 66.9716 107.913 67.0522 107.754 67.3737C107.675 67.6149 107.595 68.258 107.595 68.6598C106.879 67.454 106.481 66.007 106.481 64.56C106.481 63.9169 106.561 63.2736 106.72 62.6306C106.481 63.3542 106.401 64.1581 106.401 64.9618C106.401 69.6247 110.141 73.3227 114.676 73.3227C119.291 73.3227 122.951 69.5441 122.951 64.9618C122.872 63.9972 122.713 63.113 122.474 62.309ZM109.107 70.6696V70.4284C109.107 70.0265 109.505 70.0265 109.505 70.3481V70.9911L109.502 70.9882C109.461 70.9472 109.401 70.8867 109.331 70.8261C109.262 70.7673 109.184 70.7089 109.107 70.6696ZM108.629 68.9816C109.107 69.1425 109.584 69.2228 109.982 69.1425C110.006 69.1186 110.037 69.0656 110.069 69.0053C110.09 68.965 110.111 68.9216 110.131 68.8815C110.166 68.8112 110.196 68.7504 110.211 68.7343C110.215 68.7363 110.218 68.7382 110.221 68.7407C110.221 68.7287 110.217 68.7275 110.211 68.7343C110.17 68.7167 110.046 68.7223 109.885 68.7299C109.491 68.748 108.873 68.7763 108.709 68.4994C108.967 68.6298 109.698 68.6015 110.091 68.5861L110.116 68.5854L110.204 68.582C110.243 68.5807 110.276 68.5798 110.3 68.5798C110.38 68.4994 110.38 68.1779 110.221 68.1779C110.168 68.1511 109.999 68.1511 109.79 68.1511C109.372 68.1511 108.788 68.1511 108.629 67.9367C108.865 67.9963 109.451 67.9675 109.835 67.9487C109.97 67.9421 110.079 67.9367 110.141 67.9367C110.141 67.7758 110.141 67.4543 109.743 67.4543C109.717 67.4594 109.689 67.4643 109.657 67.4689L109.58 67.4792L109.499 67.4887L109.411 67.4975L109.223 67.5148C108.752 67.5573 108.183 67.6086 108.072 67.7758C107.993 67.9367 107.913 68.821 107.913 69.3837C108.152 69.7856 108.55 70.1877 108.868 70.5092V70.1877C108.868 69.9465 109.107 69.8659 109.186 69.8659C109.425 69.7856 109.664 69.7856 109.823 69.8659C109.823 69.842 109.844 69.8039 109.869 69.7577C109.93 69.6491 110.014 69.4965 109.902 69.3837C109.816 69.3251 109.687 69.3198 109.535 69.3137C109.269 69.3027 108.933 69.2888 108.629 68.9816ZM118.098 63.8364C117.939 64.0776 117.78 64.3991 117.62 64.7206C117.592 64.7065 117.562 64.6896 117.528 64.6708C117.484 64.6454 117.435 64.6164 117.381 64.5847L117.364 64.5746C117.305 64.54 117.241 64.5024 117.172 64.4631C117.09 64.4164 117.001 64.3676 116.904 64.3188V64.1579C117.063 63.0324 116.029 61.9072 114.756 60.862C115.233 61.4247 115.711 62.0678 116.029 62.6306C116.586 63.5148 116.586 63.9169 116.586 64.2385C116.586 64.2817 116.563 64.3942 116.531 64.5514C116.444 64.9799 116.289 65.7404 116.347 66.3285C116.347 66.9716 116.586 67.6149 117.063 67.8559C117.004 67.8559 116.956 67.8669 116.911 67.881L116.865 67.8962C116.805 67.9164 116.745 67.9365 116.666 67.9365C116.188 67.5344 115.949 66.8913 115.949 66.3285C115.949 65.6667 116.083 65.0051 116.166 64.5895L116.188 64.4797C116.265 63.6276 115.898 63.0739 115.587 62.6035L115.552 62.5502C114.836 61.5854 113.642 60.058 113.483 59.9777C113.324 59.8168 113.403 59.7365 113.722 59.8168C114.199 59.8168 115.233 59.9777 116.268 60.6208C116.363 60.685 116.468 60.7524 116.58 60.8244C117.028 61.1125 117.588 61.4728 118.098 61.9875C118.416 62.1481 118.655 63.0324 118.098 63.8364ZM116.745 65.3637C116.586 66.3283 116.586 67.1323 117.302 67.3735C117.063 66.8107 117.063 66.248 117.223 65.6852C117.143 65.6049 116.984 65.5246 116.745 65.3637ZM116.745 65.0424C116.745 64.9621 116.765 64.902 116.785 64.8417C116.805 64.7814 116.825 64.7211 116.825 64.6406C117.143 64.8014 117.302 64.9621 117.461 65.0424C117.421 65.0827 117.402 65.143 117.382 65.2033C117.362 65.2636 117.342 65.3239 117.302 65.3642C117.293 65.3554 117.283 65.3466 117.27 65.3376C117.256 65.3268 117.239 65.3161 117.22 65.3051C117.182 65.2829 117.135 65.2595 117.083 65.2333C116.984 65.183 116.864 65.1227 116.745 65.0424ZM118.336 61.1835C116.586 58.7719 114.597 58.6913 114.119 58.7719C113.562 58.8522 113.801 59.0129 113.881 59.0129C113.562 59.0934 113.324 59.3344 113.801 59.3344C114.279 59.3344 115.87 59.5756 117.302 60.7817C116.586 59.7365 115.393 59.3344 114.597 59.0934C115.233 59.0934 116.666 59.415 118.336 61.1835ZM119.291 66.1679C119.689 65.6052 120.167 64.7209 119.45 63.6757C120.644 64.4797 120.087 66.007 119.291 66.1679ZM120.377 64.769C120.386 64.8405 120.394 64.9052 120.405 64.9618C120.644 64.801 120.723 63.113 119.212 62.9521C120.237 63.6425 120.323 64.3329 120.377 64.769ZM120.803 63.9169C120.326 62.6306 119.371 62.309 119.053 62.2287C119.291 62.1481 120.883 62.3893 120.803 63.9169ZM119.45 59.2543C119.45 59.2543 120.166 58.7722 119.53 58.6916C118.575 58.5309 117.859 59.4152 117.7 59.7368C118.266 59.3076 118.769 59.3242 119.042 59.3329L119.086 59.3342L119.132 59.3349C118.533 59.5163 118.34 59.7888 118.18 60.0153L118.178 60.0175C118.154 60.0507 118.131 60.0829 118.108 60.1137C118.079 60.1513 118.05 60.1867 118.018 60.2192C118.416 60.0583 118.814 59.8976 119.61 60.0583C118.655 60.1386 118.336 60.4601 118.257 60.7014C118.575 60.621 119.212 60.4601 119.769 60.7819C118.575 60.8622 118.575 61.1838 118.575 61.1838C118.575 61.1838 119.769 61.1035 120.246 61.7465C119.45 61.5053 118.814 61.8268 118.814 61.8268C118.814 61.8268 120.246 61.9877 120.883 62.9523C121.121 62.5505 120.564 61.9074 120.564 61.9074C120.564 61.9074 120.723 61.9877 120.883 61.8268C121.121 61.5053 120.166 60.8622 120.166 60.8622C120.166 60.8622 120.723 60.8622 120.723 60.7014C120.723 60.2995 119.928 60.0583 119.928 60.0583C119.928 60.0583 120.405 59.978 120.405 59.8171C120.326 59.3349 119.45 59.2543 119.45 59.2543ZM118.814 58.1286C119.053 58.1286 119.212 58.2895 118.973 58.3698C118.147 58.5217 117.746 59.0322 117.436 59.4267L117.382 59.4953C117.302 59.0129 118.018 58.0483 118.814 58.1286ZM116.745 59.0934L116.904 59.2543C117.223 58.6916 117.302 57.5661 116.666 57.0837C116.984 57.968 116.825 58.8522 116.745 59.0934ZM116.506 58.2092C116.506 58.3974 116.479 58.5856 116.457 58.7419L116.456 58.7482L116.455 58.7534C116.448 58.8002 116.442 58.8434 116.437 58.8832C116.431 58.9333 116.427 58.9772 116.427 59.0131C116.397 58.9828 116.367 58.964 116.337 58.9479L116.308 58.933C116.268 58.9128 116.228 58.8925 116.188 58.8522C116.268 58.2092 116.109 57.5661 115.711 57.0034C116.347 57.0034 116.427 57.5661 116.506 58.2092ZM115.631 58.5307C115.711 58.611 115.87 58.611 115.949 58.6913C115.94 58.6459 115.931 58.5873 115.921 58.519C115.839 57.9811 115.664 56.8425 114.676 56.8425C115.552 57.5661 115.631 58.2895 115.631 58.5307ZM110.937 57.8874C111.653 57.4855 112.528 57.6464 112.528 57.6464C112.369 57.4855 112.21 57.4052 111.971 57.3246C112.528 57.0837 113.403 57.4052 113.403 57.4052C113.403 57.4052 113.324 57.2443 113.006 57.0031C113.403 56.8425 114.04 57.2443 114.119 57.3246C114.04 57.164 113.881 57.0031 113.722 56.8425C114.597 56.7619 115.154 57.8874 115.313 58.4501C115.154 58.3698 114.995 58.3698 114.836 58.3698C114.836 58.1286 114.676 57.7267 114.279 57.4855C114.517 57.8071 114.597 58.1286 114.597 58.2895H114.279L114.259 58.249C114.173 58.069 114.004 57.7145 113.562 57.5659C113.801 57.7267 113.96 58.1286 114.04 58.3698C113.96 58.3698 113.801 58.3698 113.722 58.4501C113.562 58.2092 113.244 57.8874 112.687 57.8071C113.085 57.968 113.403 58.3698 113.483 58.5307C113.324 58.611 113.165 58.6913 113.165 58.8522C113.006 58.5307 111.971 57.8071 110.937 57.8874ZM115.87 63.5951C115.631 62.7912 114.995 61.9872 113.562 60.5402C113.085 60.9421 112.767 61.4245 112.449 62.0676C113.244 62.3088 114.676 63.0324 115.87 63.6755V63.5951ZM112.21 62.7111C111.971 62.5505 111.971 62.3093 112.289 62.3093C113.881 62.9523 114.995 63.5151 115.87 64.0778V64.4799C115.789 64.4389 115.71 64.3979 115.632 64.3564L115.421 64.2443C115.104 64.0751 114.764 63.894 114.279 63.676C113.881 63.4347 112.926 62.9523 112.21 62.7111ZM115.45 65.4521C115.518 65.8014 115.577 66.1032 115.711 66.3288C115.711 65.9076 115.771 65.4868 115.84 65.0124L115.87 64.8014L115.154 64.319C115.154 64.3993 115.233 64.4799 115.233 64.5602C115.338 64.8774 115.397 65.1791 115.45 65.4521ZM113.085 67.2931C112.846 67.2128 112.767 67.1325 112.767 66.9716C112.767 66.8776 112.794 66.7834 112.817 66.7055L112.83 66.6596C112.839 66.624 112.846 66.5934 112.846 66.5698C112.902 66.4575 112.88 66.3847 112.862 66.3237C112.854 66.2971 112.846 66.2726 112.846 66.2482C112.767 66.2482 112.687 66.2482 112.687 66.1677C112.608 66.007 112.846 65.8461 112.846 65.8461C112.846 65.8461 112.608 65.7658 112.608 65.6049L112.629 65.5825C112.656 65.5539 112.678 65.5278 112.693 65.5041C112.705 65.4872 112.713 65.4716 112.719 65.4567C112.745 65.3852 112.708 65.3344 112.608 65.2834L112.539 65.2614C112.34 65.1992 112.226 65.163 112.369 64.8012C112.528 64.4797 112.687 64.1579 112.687 63.9169C112.687 63.8835 112.674 63.8364 112.658 63.7812C112.635 63.7031 112.608 63.6091 112.608 63.5148C112.687 63.2736 112.687 63.2736 112.767 63.1933L113.244 63.4345C113.085 63.5148 112.926 63.5951 112.767 63.5148C112.767 63.6757 112.926 63.9169 113.165 63.9972V64.0776V64.2385C113.165 64.2385 113.324 64.3991 113.722 64.1579C113.483 63.9169 113.324 63.8364 113.244 63.8364C113.165 63.756 113.165 63.6757 113.244 63.6757C113.403 63.5951 113.642 63.6757 113.801 63.756C113.96 63.8364 114.119 63.9169 114.199 63.9972C114.226 63.9972 114.253 64.0065 114.28 64.0185L114.318 64.0375C114.333 64.0449 114.348 64.0522 114.362 64.0585C114.377 64.0651 114.392 64.0705 114.407 64.0739C114.417 64.0761 114.427 64.0776 114.438 64.0776C114.597 64.2385 114.756 64.56 114.119 64.8815C113.781 65.0868 113.788 65.4667 113.798 65.9721L113.798 65.975L113.799 66.04C113.8 66.1074 113.801 66.1769 113.801 66.2482C113.901 66.1215 113.946 65.947 113.993 65.7646C114.095 65.3686 114.207 64.9365 114.915 64.8815C114.962 65.0554 115 65.2414 115.039 65.4357C115.2 66.2302 115.388 67.1611 116.347 67.9365C116.109 68.0168 115.79 68.0971 115.552 68.258C115.233 68.4186 114.915 68.5795 114.676 68.7402C114.597 68.5795 114.358 67.8559 114.358 67.6149C114.38 67.593 114.425 67.5649 114.483 67.5292C114.637 67.4345 114.879 67.2858 114.995 67.0522C114.98 67.0522 114.942 67.0681 114.883 67.0927C114.618 67.2035 113.931 67.4904 113.085 67.2931ZM114.159 68.539C114.142 68.4687 114.124 68.3984 114.107 68.3312C114.085 68.2453 114.062 68.165 114.04 68.0971C113.527 68.4858 113.169 69.2917 112.925 69.8425L112.922 69.8491L112.92 69.852C112.863 69.9806 112.812 70.0956 112.767 70.1872C112.926 70.0265 113.165 69.8657 113.324 69.705C113.37 69.6125 113.415 69.5002 113.463 69.383C113.521 69.2416 113.581 69.0934 113.647 68.9655C113.717 68.8307 113.794 68.7184 113.881 68.6598C113.801 68.9814 113.722 69.2226 113.642 69.4638C113.699 69.4059 113.767 69.3483 113.841 69.2905C113.973 69.1874 114.126 69.0844 114.279 68.9814C114.258 68.9201 114.238 68.8483 114.218 68.7714C114.198 68.6972 114.179 68.6181 114.159 68.539ZM119.689 70.9108C118.973 70.7499 117.063 70.5893 115.154 72.197C117.302 71.3127 118.336 71.3932 118.814 71.5539C117.541 72.3578 116.109 72.7597 114.517 72.7597H114.04C114.597 72.0363 115.154 71.3932 116.666 70.7499C118.018 70.1872 119.371 70.2678 120.087 70.5087C120.007 70.6696 119.848 70.8305 119.689 70.9108ZM120.405 70.2678L121.36 69.0619C120.803 68.7404 118.336 67.8561 115.552 69.3835C118.098 67.6952 120.007 68.0973 121.44 68.4189C120.087 67.9365 118.257 67.6149 116.188 68.4189C113.881 69.3032 112.608 70.9108 111.812 72.2775C111.892 72.3578 112.051 72.3578 112.21 72.4384C112.608 71.7953 113.483 70.509 114.995 69.705C113.642 70.7502 112.846 71.8757 112.449 72.5187C112.846 72.5991 113.324 72.6796 113.722 72.7599C114.119 72.1972 114.915 71.2326 116.506 70.509C118.257 69.705 119.689 70.0265 120.405 70.2678Z" fill="black"/>
<path fill-rule="evenodd" clip-rule="evenodd" d="M127.407 55.3152C125.736 55.3152 124.861 57.0837 124.861 58.6917C124.861 61.4565 126.363 63.5422 127.9 65.6755C129.446 67.8223 131.027 70.0173 131.147 73.0012C131.147 75.8149 128.68 77.8247 125.895 77.8247C124.622 77.8247 123.11 77.262 123.031 75.4131C122.951 73.8855 124.224 73.1621 124.463 73.1621C124.622 73.1621 124.781 73.3228 124.781 73.4836C124.781 73.6445 124.622 73.8052 124.543 73.8052C123.986 74.2073 123.667 74.9307 123.667 75.4934C123.667 76.2974 124.463 77.1013 125.895 77.1013C128.203 77.1013 130.112 75.0916 130.112 73.0012C130.112 70.7397 128.801 68.9553 127.407 67.0598C125.828 64.9124 124.145 62.6226 124.145 59.3347C124.145 57.0034 125.02 54.6721 127.487 54.6721C129.317 54.6721 130.51 56.521 130.51 58.6917C130.51 59.8171 129.714 61.9072 128.044 61.8269C127.407 61.8269 126.611 61.2642 126.532 60.1387C126.452 59.0938 127.089 58.3701 127.805 58.3701C128.521 58.3701 128.919 58.6917 129.158 59.3347C129.476 58.8525 129.476 58.4504 129.476 58.2092C129.476 56.8428 128.76 55.3152 127.407 55.3152ZM128.203 60.9424C128.282 61.0227 128.362 61.0227 128.441 60.9424C128.441 60.8904 128.441 60.8384 128.463 60.7864C128.475 60.7581 128.493 60.7295 128.521 60.7012C128.441 60.7012 128.123 60.2993 128.123 60.2993C128.362 60.2188 128.521 60.0581 128.521 59.7366C128.521 59.4954 128.362 59.2542 127.964 59.2542H127.487C127.407 59.2542 127.328 59.3345 127.328 59.415V60.7815C127.328 60.9424 127.407 61.0227 127.487 61.0227C127.566 61.0227 127.646 60.9424 127.646 60.7815V60.2993C127.805 60.5405 128.123 60.8621 128.203 60.9424Z" fill="black"/>
<path fill-rule="evenodd" clip-rule="evenodd" d="M114.676 55.1541C119.928 55.1541 124.145 59.4148 124.145 64.7207C124.145 70.0264 119.928 74.3674 114.676 74.2871C109.425 74.2871 105.208 70.0264 105.208 64.7207C105.208 59.4148 109.425 55.1541 114.676 55.1541ZM105.765 64.7207C105.765 69.7048 109.743 73.7244 114.676 73.7244C119.61 73.7244 123.588 69.7048 123.588 64.7207C123.588 59.7363 119.61 55.7168 114.676 55.7168C109.743 55.7168 105.765 59.7363 105.765 64.7207Z" fill="black"/>
<path fill-rule="evenodd" clip-rule="evenodd" d="M105.606 73.2424C105.685 73.2424 105.765 73.2424 105.845 73.3228C106.958 74.0464 107.277 75.1719 107.118 76.1365C106.879 77.1013 106.004 77.6641 104.89 77.7444C103.298 77.8247 102.025 76.8601 101.23 76.2168C100.514 76.8601 99.7179 77.4229 98.604 77.5032C97.5696 77.5835 96.6944 76.9404 96.6944 75.8149C96.6944 74.6091 97.8083 73.8052 99.0018 73.8052C99.877 73.8855 100.434 74.0464 101.468 74.7698C102.025 73.8855 102.344 72.76 102.344 71.6345C102.383 69.3306 101.567 67.5959 100.732 65.8196C99.8774 64.0007 99.0018 62.1382 99.0018 59.5759C99.0018 56.4407 100.832 54.4309 102.662 54.4309C104.731 54.4309 105.924 55.7976 105.924 58.3701C105.924 59.3347 105.128 61.7466 103.378 61.5857C102.821 61.5857 102.025 61.0229 101.946 59.9778C101.946 59.0132 102.503 58.2898 103.219 58.2092C103.776 58.1289 104.253 58.4504 104.571 59.0132C104.571 58.9329 104.969 58.3701 104.969 57.5662C104.969 56.2798 104.253 55.074 102.662 55.074C101.071 55.074 99.7975 56.9231 99.7975 59.0935C99.7975 60.8599 100.596 62.5347 101.431 64.2842C102.343 66.1973 103.298 68.1997 103.298 70.509C103.298 72.2778 102.901 73.7249 101.946 75.1719C102.293 75.3823 102.6 75.613 102.891 75.8325C103.603 76.3679 104.226 76.8367 105.128 76.7795C105.765 76.7795 106.242 76.2168 106.322 75.5737C106.401 74.9307 106.083 74.2876 105.526 73.8855C105.43 73.8369 105.363 73.7883 105.325 73.7222C105.3 73.6787 105.288 73.6277 105.288 73.564C105.288 73.3228 105.447 73.2424 105.606 73.2424ZM97.2513 75.8953C97.1718 76.458 97.4901 76.9402 98.3653 76.9402C99.1609 76.9402 100.036 76.3774 100.514 75.8147C100.195 75.5737 99.1609 74.8501 98.5244 74.8501C97.8083 74.8501 97.2513 75.3325 97.2513 75.8953Z" fill="black"/>
<path fill-rule="evenodd" clip-rule="evenodd" d="M128.601 84.658V83.2913L127.725 82.3267L131.465 80.156V90.5264L132.42 91.4912L129.794 93.0186L128.68 91.4106L126.054 93.0989C126.054 93.0989 123.906 91.1697 123.906 88.999C123.906 86.1853 125.816 84.658 128.044 84.658H128.601ZM87.1464 92.6162V89.8831L83.2476 91.8125V82.8889L84.5207 81.1204H79.1897L80.4628 82.8086V90.8477L79.1897 92.6162H87.1464ZM118.734 82.4873H121.678V83.2913L118.734 85.0598V82.4873ZM148.174 87.0693L144.912 85.9441C144.912 85.9441 145.23 86.9087 147.299 87.7126C148.413 88.1145 149.924 89.0793 149.924 90.5264C149.924 92.3752 148.174 93.0183 146.423 93.0183C144.593 93.0183 142.843 91.9734 142.843 91.9734L144.514 90.6067L148.333 91.8928C148.333 91.8928 148.094 91.0085 146.264 90.1243L146.073 90.0281C144.852 89.4153 143.559 88.7661 143.559 87.3911C143.559 85.7832 144.912 84.6577 147.14 84.6577C148.572 84.6577 150.084 85.6223 150.084 85.6223L148.174 87.0693ZM92.4773 84.738C94.7052 84.738 96.4557 86.5066 96.4557 88.7576L92.1591 90.1243C92.1591 90.1243 93.7504 91.4104 95.1826 91.7322C94.4665 92.3752 93.5117 92.7771 92.4773 92.7771C90.329 92.7771 88.499 91.0085 88.499 88.7576C88.499 86.5869 90.2495 84.738 92.4773 84.738ZM93.5913 89.0791L90.8064 87.9536C90.7269 87.6321 90.7269 87.3105 90.7269 86.989C90.7269 86.5066 90.8064 85.9438 90.8064 85.9438C90.8064 85.9438 93.4321 86.3457 93.5913 89.0791ZM137.512 84.738C139.74 84.738 141.172 85.542 141.172 85.542V90.5261L142.206 91.4104L139.422 92.938L138.308 91.3301L135.682 93.0183C135.682 93.0183 133.534 91.0889 133.534 88.9185C133.534 86.6675 135.284 84.738 137.512 84.738ZM135.602 87.2302C135.602 86.5872 135.762 86.0244 135.762 86.0244L138.228 87.2302V90.5232C138.221 90.5164 138.189 90.4985 138.137 90.47L138.135 90.4685C137.663 90.2053 135.602 89.0547 135.602 87.2302ZM103.537 91.5713C103.537 91.5713 99.877 90.1243 99.877 86.989C99.877 86.5869 100.036 85.9438 100.036 85.9438C100.036 85.9438 103.617 87.4712 103.617 90.1243C103.617 90.7673 103.537 91.5713 103.537 91.5713ZM101.707 84.738C103.935 84.738 105.685 86.5869 105.685 88.7576C105.685 91.0085 103.855 92.7771 101.707 92.7771C99.4792 92.7771 97.7287 90.9282 97.7287 88.7576C97.7287 86.5066 99.4792 84.738 101.707 84.738ZM121.599 90.9285V84.4971L118.018 86.748L118.814 87.8735V91.0088L117.541 92.697H122.872L121.599 90.9285ZM107.993 86.989L107.118 86.1851L109.743 84.6577L110.618 86.0244L112.926 84.6577C112.926 84.6577 115.711 85.3008 115.711 87.5518V91.0085L116.984 92.7771H112.846V88.1145C112.846 86.9087 110.937 86.5872 110.937 86.5872V91.0085L112.21 92.7771H106.879L108.152 91.0891V87.9539V86.989H107.993ZM125.895 87.2302C125.895 86.5872 126.134 86.0244 126.134 86.0244L128.601 87.2302V90.5264C128.601 90.5264 125.895 89.3206 125.895 87.2302Z" fill="black"/>
<path d="M110.857 86.5068V90.9283L112.13 92.697H106.799L108.072 91.0087V87.8735L110.857 86.5068Z" fill="black"/>
<path d="M85.8733 100.897C85.7142 100.897 85.6346 100.977 85.4755 101.138C85.1572 101.54 84.6798 102.183 84.2024 102.826C84.6798 102.826 85.3164 102.826 85.4755 102.826C85.5551 102.826 85.5551 102.987 85.4755 102.987C85.2368 102.987 84.5207 102.987 84.0433 102.987C83.8046 103.309 82.452 105.158 82.5315 105.72C82.5315 105.881 82.6111 105.961 82.5315 105.961C82.5315 106.042 82.3724 105.801 82.3724 105.72C82.2133 105.238 82.5315 104.595 82.7702 104.193C83.0089 103.791 83.4068 103.228 83.5659 102.987C83.2476 102.987 83.3272 102.987 83.1681 102.987C82.9294 102.987 82.9294 102.746 83.0885 102.746C83.2476 102.746 83.4068 102.746 83.725 102.746C84.282 101.862 84.9185 101.138 85.1572 100.816C84.839 100.816 84.6798 100.816 84.5207 100.816C84.2024 100.816 84.282 100.816 84.1229 100.816C83.8842 100.816 83.9637 100.575 84.0433 100.575C84.2024 100.575 84.3616 100.575 84.6798 100.575C84.839 100.575 84.9981 100.575 85.3959 100.575C85.5551 100.495 85.6346 100.495 85.7142 100.495C85.7938 100.495 85.8733 100.495 85.8733 100.575C86.2712 100.575 86.7486 100.575 86.9077 100.575C86.9873 100.575 86.9873 100.736 86.9077 100.736C86.7486 100.897 86.2712 100.897 85.8733 100.897Z" fill="black"/>
<path d="M85.8733 100.897C85.7142 100.897 85.6346 100.977 85.4755 101.138C85.1572 101.54 84.6798 102.183 84.2024 102.826C84.6798 102.826 85.3164 102.826 85.4755 102.826C85.5551 102.826 85.5551 102.987 85.4755 102.987C85.2368 102.987 84.5207 102.987 84.0433 102.987C83.8046 103.309 82.452 105.158 82.5315 105.72C82.5315 105.881 82.6111 105.961 82.5315 105.961C82.5315 106.042 82.3724 105.801 82.3724 105.72C82.2133 105.238 82.5315 104.595 82.7702 104.193C83.0089 103.791 83.4068 103.228 83.5659 102.987C83.2476 102.987 83.3272 102.987 83.1681 102.987C82.9294 102.987 82.9294 102.746 83.0885 102.746C83.2476 102.746 83.4068 102.746 83.725 102.746C84.282 101.862 84.9185 101.138 85.1572 100.816C84.839 100.816 84.6798 100.816 84.5207 100.816C84.2024 100.816 84.282 100.816 84.1229 100.816C83.8842 100.816 83.9637 100.575 84.0433 100.575C84.2024 100.575 84.3616 100.575 84.6798 100.575C84.839 100.575 84.9981 100.575 85.3959 100.575C85.5551 100.495 85.6346 100.495 85.7142 100.495C85.7938 100.495 85.8733 100.495 85.8733 100.575C86.2712 100.575 86.7486 100.575 86.9077 100.575C86.9873 100.575 86.9873 100.736 86.9077 100.736C86.7486 100.897 86.2712 100.897 85.8733 100.897Z" fill="black"/>
<path d="M87.385 103.389C86.9872 103.389 86.1915 104.032 85.8733 104.353C85.4754 104.755 85.1572 105.318 84.7593 105.72C84.5206 105.961 84.2024 105.64 84.4411 105.318C84.8389 104.755 85.4754 103.952 85.7141 103.308C85.7937 103.067 85.7937 102.987 85.9528 102.987C86.112 102.987 86.2711 103.067 86.112 103.389C85.9528 103.791 85.6346 104.193 85.0776 105.077C85.6346 104.434 86.6689 102.987 87.1463 102.987C87.2259 102.987 87.4646 102.987 87.4646 103.228C87.5442 103.469 87.4646 103.389 87.385 103.389Z" fill="black"/>
<path d="M87.385 103.389C86.9872 103.389 86.1915 104.032 85.8733 104.353C85.4754 104.755 85.1572 105.318 84.7593 105.72C84.5206 105.961 84.2024 105.64 84.4411 105.318C84.8389 104.755 85.4754 103.952 85.7141 103.308C85.7937 103.067 85.7937 102.987 85.9528 102.987C86.112 102.987 86.2711 103.067 86.112 103.389C85.9528 103.791 85.6346 104.193 85.0776 105.077C85.6346 104.434 86.6689 102.987 87.1463 102.987C87.2259 102.987 87.4646 102.987 87.4646 103.228C87.5442 103.469 87.4646 103.389 87.385 103.389Z" fill="black"/>
<path d="M89.8516 104.756C89.3742 105.238 88.3399 105.801 87.7033 105.801C86.1916 105.881 87.8625 102.826 89.1355 102.907C90.0903 102.987 88.7377 104.595 87.942 104.756C87.8625 104.756 87.8625 104.756 87.8625 104.675L87.942 104.595C88.1807 104.515 88.5786 104.193 88.8173 103.952C89.1355 103.55 89.2947 103.148 89.1355 103.148C88.4194 103.148 87.0668 105.56 87.942 105.56C88.6581 105.56 89.6925 104.756 90.0108 104.434C89.8516 104.675 89.9312 104.595 89.8516 104.756Z" fill="black"/>
<path d="M89.8516 104.756C89.3742 105.238 88.3399 105.801 87.7033 105.801C86.1916 105.881 87.8625 102.826 89.1355 102.907C90.0903 102.987 88.7377 104.595 87.942 104.756C87.8625 104.756 87.8625 104.756 87.8625 104.675L87.942 104.595C88.1807 104.515 88.5786 104.193 88.8173 103.952C89.1355 103.55 89.2947 103.148 89.1355 103.148C88.4194 103.148 87.0668 105.56 87.942 105.56C88.6581 105.56 89.6925 104.756 90.0108 104.434C89.8516 104.675 89.9312 104.595 89.8516 104.756Z" fill="black"/>
<path d="M89.6129 104.916C89.6129 104.916 89.6925 104.755 89.7721 104.595C89.8516 104.514 90.0903 104.273 90.1699 104.193C90.2495 104.112 90.329 104.032 90.329 103.951C90.4882 103.228 90.886 102.826 91.6021 102.906C91.7612 102.906 92.0795 102.987 92.0795 103.148C92.0795 103.228 91.9999 103.228 91.9204 103.228C91.6021 103.148 91.2838 103.148 91.0451 103.469C90.4882 104.032 90.886 105.238 90.0903 105.72C90.7269 105.64 91.6021 105.238 92.4773 104.514C92.3978 104.755 92.3978 104.836 92.3182 104.916C91.6817 105.399 90.6473 105.961 89.7721 105.961C89.6925 105.881 89.5334 105.8 89.5334 105.8C89.4538 105.72 89.4538 105.479 89.4538 105.559C89.5334 105.64 89.6129 105.64 89.7721 105.72C89.9312 105.72 90.0108 105.64 90.0903 105.559C90.329 105.318 90.329 104.755 90.329 104.353C90.0903 104.514 89.9312 104.675 89.6129 104.916Z" fill="black"/>
<path d="M89.6129 104.916C89.6129 104.916 89.6925 104.755 89.7721 104.595C89.8516 104.514 90.0903 104.273 90.1699 104.193C90.2495 104.112 90.329 104.032 90.329 103.951C90.4882 103.228 90.886 102.826 91.6021 102.906C91.7612 102.906 92.0795 102.987 92.0795 103.148C92.0795 103.228 91.9999 103.228 91.9204 103.228C91.6021 103.148 91.2838 103.148 91.0451 103.469C90.4882 104.032 90.886 105.238 90.0903 105.72C90.7269 105.64 91.6021 105.238 92.4773 104.514C92.3978 104.755 92.3978 104.836 92.3182 104.916C91.6817 105.399 90.6473 105.961 89.7721 105.961C89.6925 105.881 89.5334 105.8 89.5334 105.8C89.4538 105.72 89.4538 105.479 89.4538 105.559C89.5334 105.64 89.6129 105.64 89.7721 105.72C89.9312 105.72 90.0108 105.64 90.0903 105.559C90.329 105.318 90.329 104.755 90.329 104.353C90.0903 104.514 89.9312 104.675 89.6129 104.916Z" fill="black"/>
<path d="M96.6148 99.8517C96.4556 99.7713 95.9782 100.093 95.5008 100.736C94.3869 102.022 93.4321 103.469 92.5569 104.916C93.0343 104.514 94.4665 103.067 95.0234 103.067C95.2621 103.067 95.2621 103.389 95.103 103.63C94.7847 104.032 94.4665 104.595 94.3073 104.997C93.9891 106.122 96.2169 104.595 96.2965 104.434C96.2169 104.675 96.2169 104.595 96.1374 104.756C95.66 105.157 94.7052 105.64 94.1482 105.64C93.3525 105.64 93.8299 104.675 94.1482 104.193C94.3073 103.952 94.4665 103.71 94.546 103.55C94.7847 103.228 94.3869 103.469 94.3073 103.469C93.4321 104.032 92.716 104.756 91.9999 105.559C91.7612 105.801 91.5225 105.479 91.6816 105.157C92.4773 103.71 93.6708 101.861 94.7847 100.656C95.4213 99.9321 96.0578 99.4497 96.4556 99.4497C96.6943 99.4497 96.7739 99.5301 96.6943 99.6909C96.7739 100.012 96.6943 99.8517 96.6148 99.8517Z" fill="black"/>
<path d="M96.6148 99.8517C96.4556 99.7713 95.9782 100.093 95.5008 100.736C94.3869 102.022 93.4321 103.469 92.5569 104.916C93.0343 104.514 94.4665 103.067 95.0234 103.067C95.2621 103.067 95.2621 103.389 95.103 103.63C94.7847 104.032 94.4665 104.595 94.3073 104.997C93.9891 106.122 96.2169 104.595 96.2965 104.434C96.2169 104.675 96.2169 104.595 96.1374 104.756C95.66 105.157 94.7052 105.64 94.1482 105.64C93.3525 105.64 93.8299 104.675 94.1482 104.193C94.3073 103.952 94.4665 103.71 94.546 103.55C94.7847 103.228 94.3869 103.469 94.3073 103.469C93.4321 104.032 92.716 104.756 91.9999 105.559C91.7612 105.801 91.5225 105.479 91.6816 105.157C92.4773 103.71 93.6708 101.861 94.7847 100.656C95.4213 99.9321 96.0578 99.4497 96.4556 99.4497C96.6943 99.4497 96.7739 99.5301 96.6943 99.6909C96.7739 100.012 96.6943 99.8517 96.6148 99.8517Z" fill="black"/>
<path d="M99.6383 103.389C100.116 103.469 100.673 103.55 100.752 104.273C100.832 105.318 99.4792 106.042 98.5244 106.042C98.2857 106.042 98.1265 105.961 98.1265 105.72C98.1265 105.72 98.1265 105.64 98.1265 105.559C98.1265 105.479 98.1265 105.399 98.2061 105.479C98.2061 105.559 98.3652 105.64 98.5244 105.64C99.2405 105.64 100.434 105.158 100.434 104.193C100.434 103.791 99.7974 103.55 99.4792 103.55C99.3996 103.55 99.3996 103.469 99.3996 103.469C99.3996 103.389 99.4792 103.309 99.5587 103.309C100.275 103.228 101.389 102.585 101.389 101.54C101.389 101.299 101.23 101.058 100.991 101.058C100.832 101.058 100.752 101.138 100.593 101.299C100.036 101.942 99.5587 102.585 99.0813 103.309C98.8426 103.63 97.5696 105.318 97.6491 105.881C97.6491 106.042 97.7287 106.122 97.6491 106.122C97.5696 106.203 97.4104 105.961 97.4104 105.881C97.2513 105.399 97.5696 104.756 97.8083 104.354C98.6039 103.228 99.32 102.022 100.195 101.058C99.7974 101.058 99.4792 101.138 99.0813 101.299H99.0018C98.9222 101.299 98.9222 101.299 98.9222 101.218C98.9222 100.897 100.275 100.897 100.434 100.897C100.514 100.816 100.673 100.816 100.752 100.816C100.832 100.816 100.911 100.816 100.911 100.897C101.23 100.897 101.707 101.138 101.707 101.54C101.787 102.585 100.434 103.309 99.6383 103.389Z" fill="black"/>
<path d="M99.6383 103.389C100.116 103.469 100.673 103.55 100.752 104.273C100.832 105.318 99.4792 106.042 98.5244 106.042C98.2857 106.042 98.1265 105.961 98.1265 105.72C98.1265 105.72 98.1265 105.64 98.1265 105.559C98.1265 105.479 98.1265 105.399 98.2061 105.479C98.2061 105.559 98.3652 105.64 98.5244 105.64C99.2405 105.64 100.434 105.158 100.434 104.193C100.434 103.791 99.7974 103.55 99.4792 103.55C99.3996 103.55 99.3996 103.469 99.3996 103.469C99.3996 103.389 99.4792 103.309 99.5587 103.309C100.275 103.228 101.389 102.585 101.389 101.54C101.389 101.299 101.23 101.058 100.991 101.058C100.832 101.058 100.752 101.138 100.593 101.299C100.036 101.942 99.5587 102.585 99.0813 103.309C98.8426 103.63 97.5696 105.318 97.6491 105.881C97.6491 106.042 97.7287 106.122 97.6491 106.122C97.5696 106.203 97.4104 105.961 97.4104 105.881C97.2513 105.399 97.5696 104.756 97.8083 104.354C98.6039 103.228 99.32 102.022 100.195 101.058C99.7974 101.058 99.4792 101.138 99.0813 101.299H99.0018C98.9222 101.299 98.9222 101.299 98.9222 101.218C98.9222 100.897 100.275 100.897 100.434 100.897C100.514 100.816 100.673 100.816 100.752 100.816C100.832 100.816 100.911 100.816 100.911 100.897C101.23 100.897 101.707 101.138 101.707 101.54C101.787 102.585 100.434 103.309 99.6383 103.389Z" fill="black"/>
<path d="M103.696 104.756C103.219 105.238 102.184 105.801 101.548 105.801C100.036 105.881 101.707 102.826 102.98 102.907C103.935 102.987 102.582 104.595 101.787 104.756C101.707 104.756 101.707 104.756 101.707 104.675L101.787 104.595C102.025 104.515 102.423 104.193 102.662 103.952C102.98 103.55 103.139 103.148 102.98 103.148C102.264 103.148 100.911 105.56 101.787 105.56C102.503 105.56 103.537 104.756 103.855 104.434C103.776 104.675 103.776 104.595 103.696 104.756Z" fill="black"/>
<path d="M103.696 104.756C103.219 105.238 102.184 105.801 101.548 105.801C100.036 105.881 101.707 102.826 102.98 102.907C103.935 102.987 102.582 104.595 101.787 104.756C101.707 104.756 101.707 104.756 101.707 104.675L101.787 104.595C102.025 104.515 102.423 104.193 102.662 103.952C102.98 103.55 103.139 103.148 102.98 103.148C102.264 103.148 100.911 105.56 101.787 105.56C102.503 105.56 103.537 104.756 103.855 104.434C103.776 104.675 103.776 104.595 103.696 104.756Z" fill="black"/>
<path d="M107.754 99.7714C107.595 99.6911 107.118 100.093 106.64 100.656C106.163 101.218 103.776 104.434 103.855 105.238C103.855 105.399 103.935 105.479 104.094 105.479C104.492 105.479 105.606 104.836 105.924 104.434C105.845 104.595 105.845 104.675 105.765 104.756C105.526 104.997 104.89 105.399 104.571 105.56C104.333 105.72 103.617 105.962 103.378 105.801C103.298 105.72 103.219 105.64 103.219 105.479C103.219 104.515 105.447 101.46 105.924 100.817C106.561 100.093 107.118 99.5303 107.595 99.5303C107.834 99.5303 107.913 99.6107 107.834 99.7714C107.913 99.9322 107.754 99.7714 107.754 99.7714Z" fill="black"/>
<path d="M107.754 99.7714C107.595 99.6911 107.118 100.093 106.64 100.656C106.163 101.218 103.776 104.434 103.855 105.238C103.855 105.399 103.935 105.479 104.094 105.479C104.492 105.479 105.606 104.836 105.924 104.434C105.845 104.595 105.845 104.675 105.765 104.756C105.526 104.997 104.89 105.399 104.571 105.56C104.333 105.72 103.617 105.962 103.378 105.801C103.298 105.72 103.219 105.64 103.219 105.479C103.219 104.515 105.447 101.46 105.924 100.817C106.561 100.093 107.118 99.5303 107.595 99.5303C107.834 99.5303 107.913 99.6107 107.834 99.7714C107.913 99.9322 107.754 99.7714 107.754 99.7714Z" fill="black"/>
<path d="M108.391 103.711C108.072 104.273 107.834 104.675 107.675 105.077C107.436 105.56 105.924 108.293 104.253 108.293C103.935 108.293 103.617 108.293 103.458 108.132C103.298 108.052 103.378 107.891 103.458 107.891C103.696 107.971 103.776 107.971 104.094 107.971C105.685 107.971 107.277 104.836 107.595 104.273C107.356 104.515 105.288 106.524 105.288 105.399C105.288 105.077 105.526 104.595 105.685 104.354C106.163 103.63 107.118 102.907 107.913 102.907C108.072 102.907 108.232 102.907 108.311 102.987C108.629 103.148 108.55 103.309 108.391 103.228C108.311 103.228 108.232 103.148 108.072 103.228C107.436 103.228 106.958 103.63 106.561 104.032C106.004 104.675 105.845 105.077 105.765 105.318C105.765 105.962 106.958 104.756 107.515 104.273C107.834 104.032 108.072 103.55 108.232 103.55C108.391 103.469 108.47 103.469 108.55 103.55V103.63C108.47 103.63 108.391 103.711 108.391 103.711Z" fill="black"/>
<path d="M108.391 103.711C108.072 104.273 107.834 104.675 107.675 105.077C107.436 105.56 105.924 108.293 104.253 108.293C103.935 108.293 103.617 108.293 103.458 108.132C103.298 108.052 103.378 107.891 103.458 107.891C103.696 107.971 103.776 107.971 104.094 107.971C105.685 107.971 107.277 104.836 107.595 104.273C107.356 104.515 105.288 106.524 105.288 105.399C105.288 105.077 105.526 104.595 105.685 104.354C106.163 103.63 107.118 102.907 107.913 102.907C108.072 102.907 108.232 102.907 108.311 102.987C108.629 103.148 108.55 103.309 108.391 103.228C108.311 103.228 108.232 103.148 108.072 103.228C107.436 103.228 106.958 103.63 106.561 104.032C106.004 104.675 105.845 105.077 105.765 105.318C105.765 105.962 106.958 104.756 107.515 104.273C107.834 104.032 108.072 103.55 108.232 103.55C108.391 103.469 108.47 103.469 108.55 103.55V103.63C108.47 103.63 108.391 103.711 108.391 103.711Z" fill="black"/>
<path fill-rule="evenodd" clip-rule="evenodd" d="M110.221 102.666C109.823 102.666 110.062 101.942 110.38 101.942C110.698 102.022 110.619 102.666 110.221 102.666ZM108.709 105.801C109.266 105.801 110.141 105.319 110.698 104.917C110.738 104.836 110.758 104.816 110.768 104.786C110.778 104.756 110.778 104.716 110.778 104.595C110.619 104.756 108.47 106.203 108.788 105.077C108.948 104.675 109.345 104.032 109.743 103.55C109.982 103.309 109.823 103.148 109.664 103.148C109.425 103.228 108.788 104.273 108.629 104.515C108.311 104.997 107.993 105.801 108.709 105.801Z" fill="black"/>
<path fill-rule="evenodd" clip-rule="evenodd" d="M110.221 102.666C109.823 102.666 110.062 101.942 110.38 101.942C110.698 102.022 110.619 102.666 110.221 102.666ZM108.709 105.801C109.266 105.801 110.141 105.319 110.698 104.917C110.738 104.836 110.758 104.816 110.768 104.786C110.778 104.756 110.778 104.716 110.778 104.595C110.619 104.756 108.47 106.203 108.788 105.077C108.948 104.675 109.345 104.032 109.743 103.55C109.982 103.309 109.823 103.148 109.664 103.148C109.425 103.228 108.788 104.273 108.629 104.515C108.311 104.997 107.993 105.801 108.709 105.801Z" fill="black"/>
<path d="M114.756 104.916C114.199 105.318 113.324 105.801 112.767 105.801C111.971 105.801 112.449 104.836 112.767 104.353C112.528 104.595 110.459 106.604 110.459 105.479C110.459 105.157 110.698 104.675 110.857 104.434C111.335 103.71 112.289 102.987 113.085 102.987C113.244 102.987 113.403 102.987 113.483 103.067C113.801 103.228 113.722 103.389 113.562 103.308C113.483 103.308 113.403 103.308 113.244 103.308C112.528 103.308 112.051 103.71 111.653 104.112C111.414 104.353 110.857 105.077 110.937 105.399C110.937 106.042 112.528 104.434 112.687 104.273C112.926 104.112 113.085 103.791 113.244 103.63C113.324 103.55 113.483 103.389 113.642 103.469C113.722 103.469 113.801 103.55 113.801 103.63C113.801 103.71 113.722 103.71 113.722 103.791C113.403 104.273 113.085 104.755 113.005 105.157C112.687 106.283 114.836 104.755 114.995 104.595C114.836 104.836 114.836 104.755 114.756 104.916Z" fill="black"/>
<path d="M114.756 104.916C114.199 105.318 113.324 105.801 112.767 105.801C111.971 105.801 112.449 104.836 112.767 104.353C112.528 104.595 110.459 106.604 110.459 105.479C110.459 105.157 110.698 104.675 110.857 104.434C111.335 103.71 112.289 102.987 113.085 102.987C113.244 102.987 113.403 102.987 113.483 103.067C113.801 103.228 113.722 103.389 113.562 103.308C113.483 103.308 113.403 103.308 113.244 103.308C112.528 103.308 112.051 103.71 111.653 104.112C111.414 104.353 110.857 105.077 110.937 105.399C110.937 106.042 112.528 104.434 112.687 104.273C112.926 104.112 113.085 103.791 113.244 103.63C113.324 103.55 113.483 103.389 113.642 103.469C113.722 103.469 113.801 103.55 113.801 103.63C113.801 103.71 113.722 103.71 113.722 103.791C113.403 104.273 113.085 104.755 113.005 105.157C112.687 106.283 114.836 104.755 114.995 104.595C114.836 104.836 114.836 104.755 114.756 104.916Z" fill="black"/>
<path d="M118.416 104.836C117.939 105.238 116.984 105.72 116.427 105.72C115.631 105.72 116.109 104.755 116.427 104.273C116.586 104.032 116.745 103.791 116.825 103.63C117.063 103.308 116.666 103.549 116.586 103.549C115.711 104.193 114.995 104.997 114.279 105.8C114.04 106.042 113.722 105.72 113.96 105.398C114.756 104.273 114.995 103.951 115.233 103.469C115.313 103.228 115.313 103.067 115.552 103.067C115.79 103.067 115.87 103.228 115.711 103.469C115.552 103.871 115.154 104.353 114.676 105.077C115.154 104.675 116.666 103.148 117.223 103.148C117.461 103.148 117.541 103.469 117.302 103.71C116.984 104.112 116.666 104.675 116.506 105.077C116.188 106.202 118.336 104.675 118.496 104.514C118.496 104.755 118.496 104.675 118.416 104.836Z" fill="black"/>
<path d="M118.416 104.836C117.939 105.238 116.984 105.72 116.427 105.72C115.631 105.72 116.109 104.755 116.427 104.273C116.586 104.032 116.745 103.791 116.825 103.63C117.063 103.308 116.666 103.549 116.586 103.549C115.711 104.193 114.995 104.997 114.279 105.8C114.04 106.042 113.722 105.72 113.96 105.398C114.756 104.273 114.995 103.951 115.233 103.469C115.313 103.228 115.313 103.067 115.552 103.067C115.79 103.067 115.87 103.228 115.711 103.469C115.552 103.871 115.154 104.353 114.676 105.077C115.154 104.675 116.666 103.148 117.223 103.148C117.461 103.148 117.541 103.469 117.302 103.71C116.984 104.112 116.666 104.675 116.506 105.077C116.188 106.202 118.336 104.675 118.496 104.514C118.496 104.755 118.496 104.675 118.416 104.836Z" fill="black"/>
<path d="M123.747 101.459C123.747 101.54 123.667 101.54 123.667 101.54C123.667 101.54 123.588 101.54 123.588 101.459V101.379C123.667 101.299 123.667 101.218 123.667 101.138C123.667 101.058 123.588 100.977 123.429 100.977C123.11 100.977 122.394 101.459 121.997 102.022C121.201 102.987 120.326 104.434 120.326 105.238C120.326 105.559 120.485 105.801 120.883 105.801C121.758 105.801 122.713 105.077 122.872 104.997C122.951 104.916 123.031 104.916 123.031 104.916C123.031 104.916 123.11 104.916 123.11 104.997C123.11 105.077 123.11 105.077 123.031 105.157C122.633 105.64 121.599 106.122 120.723 106.122C120.087 106.122 119.848 105.801 119.848 105.399C119.848 104.434 120.803 103.067 121.44 102.344C122.235 101.459 123.27 100.897 123.747 100.897C123.986 100.897 124.065 100.977 124.065 101.218C124.065 101.058 123.906 101.299 123.747 101.459Z" fill="black"/>
<path d="M123.747 101.459C123.747 101.54 123.667 101.54 123.667 101.54C123.667 101.54 123.588 101.54 123.588 101.459V101.379C123.667 101.299 123.667 101.218 123.667 101.138C123.667 101.058 123.588 100.977 123.429 100.977C123.11 100.977 122.394 101.459 121.997 102.022C121.201 102.987 120.326 104.434 120.326 105.238C120.326 105.559 120.485 105.801 120.883 105.801C121.758 105.801 122.713 105.077 122.872 104.997C122.951 104.916 123.031 104.916 123.031 104.916C123.031 104.916 123.11 104.916 123.11 104.997C123.11 105.077 123.11 105.077 123.031 105.157C122.633 105.64 121.599 106.122 120.723 106.122C120.087 106.122 119.848 105.801 119.848 105.399C119.848 104.434 120.803 103.067 121.44 102.344C122.235 101.459 123.27 100.897 123.747 100.897C123.986 100.897 124.065 100.977 124.065 101.218C124.065 101.058 123.906 101.299 123.747 101.459Z" fill="black"/>
<path d="M127.327 99.8517C127.168 99.7713 126.691 100.093 126.214 100.736C125.1 102.022 124.145 103.469 123.27 104.916C123.747 104.514 125.179 103.067 125.736 103.067C125.975 103.067 126.054 103.389 125.816 103.63C125.497 104.032 125.179 104.595 125.02 104.997C124.702 106.122 126.93 104.595 127.009 104.434C126.93 104.675 126.93 104.595 126.85 104.756C126.373 105.157 125.418 105.64 124.861 105.64C124.065 105.64 124.543 104.675 124.861 104.193C125.02 103.952 125.179 103.71 125.259 103.55C125.497 103.228 125.1 103.469 125.02 103.469C124.145 104.032 123.429 104.756 122.713 105.559C122.474 105.801 122.235 105.479 122.394 105.157C123.19 103.71 124.384 101.861 125.418 100.656C126.054 99.9321 126.691 99.4497 127.089 99.4497C127.327 99.4497 127.407 99.5301 127.327 99.6909C127.487 100.012 127.327 99.8517 127.327 99.8517Z" fill="black"/>
<path d="M127.327 99.8517C127.168 99.7713 126.691 100.093 126.214 100.736C125.1 102.022 124.145 103.469 123.27 104.916C123.747 104.514 125.179 103.067 125.736 103.067C125.975 103.067 126.054 103.389 125.816 103.63C125.497 104.032 125.179 104.595 125.02 104.997C124.702 106.122 126.93 104.595 127.009 104.434C126.93 104.675 126.93 104.595 126.85 104.756C126.373 105.157 125.418 105.64 124.861 105.64C124.065 105.64 124.543 104.675 124.861 104.193C125.02 103.952 125.179 103.71 125.259 103.55C125.497 103.228 125.1 103.469 125.02 103.469C124.145 104.032 123.429 104.756 122.713 105.559C122.474 105.801 122.235 105.479 122.394 105.157C123.19 103.71 124.384 101.861 125.418 100.656C126.054 99.9321 126.691 99.4497 127.089 99.4497C127.327 99.4497 127.407 99.5301 127.327 99.6909C127.487 100.012 127.327 99.8517 127.327 99.8517Z" fill="black"/>
<path fill-rule="evenodd" clip-rule="evenodd" d="M126.85 105.881C125.497 105.801 127.168 102.907 128.203 102.907C129.715 102.987 127.964 105.881 126.85 105.881ZM127.089 105.56C127.805 105.56 129.078 103.389 128.282 103.309C127.566 103.309 126.293 105.56 127.089 105.56Z" fill="black"/>
<path fill-rule="evenodd" clip-rule="evenodd" d="M126.85 105.881C125.497 105.801 127.168 102.907 128.203 102.907C129.715 102.987 127.964 105.881 126.85 105.881ZM127.089 105.56C127.805 105.56 129.078 103.389 128.282 103.309C127.566 103.309 126.293 105.56 127.089 105.56Z" fill="black"/>
<path d="M131.385 104.836C130.749 105.399 129.953 105.801 129.317 105.801C128.919 105.801 128.68 105.56 128.68 105.238C128.68 104.273 130.033 102.665 131.067 102.907C131.147 102.907 131.226 102.987 131.226 103.067C131.226 103.148 131.226 103.148 131.147 103.148C131.067 103.148 130.988 103.148 130.908 103.148C130.59 103.228 130.192 103.469 129.794 103.791C129.158 104.434 128.919 105.399 129.476 105.479C130.192 105.479 131.226 104.675 131.545 104.434C131.465 104.675 131.385 104.836 131.385 104.836Z" fill="black"/>
<path d="M131.385 104.836C130.749 105.399 129.953 105.801 129.317 105.801C128.919 105.801 128.68 105.56 128.68 105.238C128.68 104.273 130.033 102.665 131.067 102.907C131.147 102.907 131.226 102.987 131.226 103.067C131.226 103.148 131.226 103.148 131.147 103.148C131.067 103.148 130.988 103.148 130.908 103.148C130.59 103.228 130.192 103.469 129.794 103.791C129.158 104.434 128.919 105.399 129.476 105.479C130.192 105.479 131.226 104.675 131.545 104.434C131.465 104.675 131.385 104.836 131.385 104.836Z" fill="black"/>
<path fill-rule="evenodd" clip-rule="evenodd" d="M131.545 105.881C130.192 105.801 131.783 102.907 132.897 102.907C134.329 102.987 132.658 105.881 131.545 105.881ZM131.783 105.56C132.499 105.56 133.772 103.389 132.977 103.309C132.181 103.309 130.908 105.56 131.783 105.56Z" fill="black"/>
<path fill-rule="evenodd" clip-rule="evenodd" d="M131.545 105.881C130.192 105.801 131.783 102.907 132.897 102.907C134.329 102.987 132.658 105.881 131.545 105.881ZM131.783 105.56C132.499 105.56 133.772 103.389 132.977 103.309C132.181 103.309 130.908 105.56 131.783 105.56Z" fill="black"/>
<path d="M137.671 99.7714C137.512 99.6911 137.035 100.093 136.557 100.656C136.08 101.218 133.693 104.434 133.772 105.238C133.772 105.399 133.852 105.479 134.011 105.479C134.409 105.479 135.523 104.836 135.841 104.434C135.762 104.595 135.762 104.675 135.682 104.756C135.443 104.997 134.807 105.399 134.488 105.56C134.25 105.72 133.534 105.962 133.295 105.801C133.215 105.72 133.136 105.64 133.136 105.479C133.136 104.515 135.364 101.46 135.841 100.817C136.478 100.093 137.035 99.5303 137.512 99.5303C137.751 99.5303 137.83 99.6107 137.751 99.7714C137.83 99.9322 137.671 99.7714 137.671 99.7714Z" fill="black"/>
<path d="M137.671 99.7714C137.512 99.6911 137.035 100.093 136.557 100.656C136.08 101.218 133.693 104.434 133.772 105.238C133.772 105.399 133.852 105.479 134.011 105.479C134.409 105.479 135.523 104.836 135.841 104.434C135.762 104.595 135.762 104.675 135.682 104.756C135.443 104.997 134.807 105.399 134.488 105.56C134.25 105.72 133.534 105.962 133.295 105.801C133.215 105.72 133.136 105.64 133.136 105.479C133.136 104.515 135.364 101.46 135.841 100.817C136.478 100.093 137.035 99.5303 137.512 99.5303C137.751 99.5303 137.83 99.6107 137.751 99.7714C137.83 99.9322 137.671 99.7714 137.671 99.7714Z" fill="black"/>
<path d="M139.501 104.916C139.024 105.318 138.069 105.801 137.592 105.801C136.796 105.801 137.273 104.836 137.592 104.353C137.353 104.595 135.284 106.604 135.284 105.479C135.284 105.157 135.523 104.675 135.682 104.434C136.159 103.71 137.114 102.987 137.91 102.987C138.069 102.987 138.228 102.987 138.308 103.067C138.626 103.228 138.546 103.389 138.387 103.308C138.308 103.308 138.228 103.308 138.069 103.308C137.432 103.308 136.875 103.71 136.478 104.112C136.239 104.353 135.682 105.077 135.762 105.399C135.762 106.042 137.353 104.434 137.512 104.273C137.751 104.112 137.91 103.791 138.069 103.63C138.149 103.55 138.308 103.389 138.467 103.469C138.546 103.469 138.626 103.55 138.626 103.63C138.626 103.71 138.546 103.71 138.546 103.791C138.228 104.273 137.91 104.755 137.83 105.157C137.512 106.283 139.66 104.755 139.819 104.595C139.581 104.836 139.581 104.755 139.501 104.916Z" fill="black"/>
<path d="M139.501 104.916C139.024 105.318 138.069 105.801 137.592 105.801C136.796 105.801 137.273 104.836 137.592 104.353C137.353 104.595 135.284 106.604 135.284 105.479C135.284 105.157 135.523 104.675 135.682 104.434C136.159 103.71 137.114 102.987 137.91 102.987C138.069 102.987 138.228 102.987 138.308 103.067C138.626 103.228 138.546 103.389 138.387 103.308C138.308 103.308 138.228 103.308 138.069 103.308C137.432 103.308 136.875 103.71 136.478 104.112C136.239 104.353 135.682 105.077 135.762 105.399C135.762 106.042 137.353 104.434 137.512 104.273C137.751 104.112 137.91 103.791 138.069 103.63C138.149 103.55 138.308 103.389 138.467 103.469C138.546 103.469 138.626 103.55 138.626 103.63C138.626 103.71 138.546 103.71 138.546 103.791C138.228 104.273 137.91 104.755 137.83 105.157C137.512 106.283 139.66 104.755 139.819 104.595C139.581 104.836 139.581 104.755 139.501 104.916Z" fill="black"/>
<path d="M141.57 104.836C141.172 105.158 140.058 105.881 139.342 105.801C139.103 105.801 139.024 105.64 139.024 105.479C139.024 104.836 139.979 103.55 140.058 103.309H139.74C139.501 103.309 139.501 103.067 139.66 103.067C139.819 103.067 140.058 103.067 140.217 103.067C140.536 102.585 140.695 102.344 140.774 102.264C140.933 102.103 141.093 101.942 141.172 102.022C141.331 102.103 141.172 102.344 141.093 102.505C141.013 102.585 140.854 102.907 140.695 103.067C141.013 103.067 141.013 103.067 141.252 103.067C141.331 103.067 141.331 103.228 141.252 103.228C140.854 103.228 140.854 103.228 140.536 103.228C140.138 103.791 139.66 104.595 139.581 104.997C139.263 106.203 141.57 104.595 141.65 104.434C141.65 104.756 141.65 104.675 141.57 104.836Z" fill="black"/>
<path d="M141.57 104.836C141.172 105.158 140.058 105.881 139.342 105.801C139.103 105.801 139.024 105.64 139.024 105.479C139.024 104.836 139.979 103.55 140.058 103.309H139.74C139.501 103.309 139.501 103.067 139.66 103.067C139.819 103.067 140.058 103.067 140.217 103.067C140.536 102.585 140.695 102.344 140.774 102.264C140.933 102.103 141.093 101.942 141.172 102.022C141.331 102.103 141.172 102.344 141.093 102.505C141.013 102.585 140.854 102.907 140.695 103.067C141.013 103.067 141.013 103.067 141.252 103.067C141.331 103.067 141.331 103.228 141.252 103.228C140.854 103.228 140.854 103.228 140.536 103.228C140.138 103.791 139.66 104.595 139.581 104.997C139.263 106.203 141.57 104.595 141.65 104.434C141.65 104.756 141.65 104.675 141.57 104.836Z" fill="black"/>
<path d="M143.798 104.756C143.32 105.238 142.286 105.801 141.65 105.801C140.138 105.881 141.809 102.826 143.082 102.907C144.036 102.987 142.684 104.595 141.888 104.756C141.809 104.756 141.809 104.756 141.809 104.675L141.888 104.595C142.127 104.515 142.525 104.193 142.763 103.952C143.082 103.55 143.241 103.148 143.082 103.148C142.366 103.148 141.013 105.56 141.888 105.56C142.604 105.56 143.639 104.756 143.957 104.434C143.877 104.675 143.877 104.595 143.798 104.756Z" fill="black"/>
<path d="M143.798 104.756C143.32 105.238 142.286 105.801 141.65 105.801C140.138 105.881 141.809 102.826 143.082 102.907C144.036 102.987 142.684 104.595 141.888 104.756C141.809 104.756 141.809 104.756 141.809 104.675L141.888 104.595C142.127 104.515 142.525 104.193 142.763 103.952C143.082 103.55 143.241 103.148 143.082 103.148C142.366 103.148 141.013 105.56 141.888 105.56C142.604 105.56 143.639 104.756 143.957 104.434C143.877 104.675 143.877 104.595 143.798 104.756Z" fill="black"/>
<path d="M143.639 104.916C143.639 104.916 143.718 104.755 143.798 104.595C143.877 104.514 144.116 104.273 144.196 104.193C144.275 104.112 144.355 104.032 144.355 103.951C144.514 103.228 144.912 102.826 145.628 102.906C145.787 102.906 146.105 102.987 146.105 103.148C146.105 103.228 146.026 103.228 145.946 103.228C145.628 103.148 145.31 103.148 145.071 103.469C144.514 104.032 144.912 105.238 144.116 105.72C144.753 105.64 145.628 105.238 146.503 104.514C146.423 104.755 146.423 104.836 146.344 104.916C145.707 105.399 144.673 105.961 143.798 105.961C143.718 105.961 143.559 105.881 143.48 105.881C143.4 105.8 143.4 105.559 143.4 105.64C143.48 105.72 143.559 105.72 143.718 105.8C143.877 105.8 143.957 105.72 144.036 105.64C144.275 105.399 144.275 104.836 144.275 104.434C144.116 104.514 143.877 104.675 143.639 104.916Z" fill="black"/>
<path d="M143.639 104.916C143.639 104.916 143.718 104.755 143.798 104.595C143.877 104.514 144.116 104.273 144.196 104.193C144.275 104.112 144.355 104.032 144.355 103.951C144.514 103.228 144.912 102.826 145.628 102.906C145.787 102.906 146.105 102.987 146.105 103.148C146.105 103.228 146.026 103.228 145.946 103.228C145.628 103.148 145.31 103.148 145.071 103.469C144.514 104.032 144.912 105.238 144.116 105.72C144.753 105.64 145.628 105.238 146.503 104.514C146.423 104.755 146.423 104.836 146.344 104.916C145.707 105.399 144.673 105.961 143.798 105.961C143.718 105.961 143.559 105.881 143.48 105.881C143.4 105.8 143.4 105.559 143.4 105.64C143.48 105.72 143.559 105.72 143.718 105.8C143.877 105.8 143.957 105.72 144.036 105.64C144.275 105.399 144.275 104.836 144.275 104.434C144.116 104.514 143.877 104.675 143.639 104.916Z" fill="black"/>
<rect x="89.6129" y="96.7168" width="52.1957" height="1.07188" fill="black"/>
</svg>
