<svg width="229" height="159" viewBox="0 0 229 159" fill="none" xmlns="http://www.w3.org/2000/svg">
<path fill-rule="evenodd" clip-rule="evenodd" d="M119.437 54C112.251 54 108.483 69.0879 107.34 77.4534C106.188 69.0859 102.419 54.0024 95.243 54C86.8388 53.9973 77.0071 81.8718 77 104.984H84.7364C84.7364 80.7678 90.7256 58.9402 95.0304 58.9402C98.6528 58.9402 101.888 68.4646 103.032 86.7905H111.639C112.788 68.4646 116.035 58.9402 119.639 58.9402C122.821 58.9409 126.92 70.8271 128.849 86.7905H135.923C132.716 69.4016 125.671 54 119.437 54ZM137.197 95.7039H129.658C129.844 98.7283 129.945 101.836 129.945 104.984H137.681C137.681 101.948 137.511 98.8306 137.197 95.7039ZM111.268 95.7039H103.402C103.448 97.7427 103.472 99.8638 103.472 102.066H111.197C111.197 99.8638 111.221 97.7427 111.268 95.7039Z" fill="black"/>
<path d="M134.325 94.8097H136.567V87.508H134.325V94.8097ZM144.813 87.508H146.34L145.821 89.4978H144.711L144.813 87.508ZM148.971 88.5896C150.463 88.5896 151.864 88.9619 151.871 90.4113H149.742C149.742 89.9121 149.447 89.685 148.95 89.685C148.655 89.685 148.257 89.8062 148.257 90.2637C148.257 91.023 149.47 90.8712 150.5 91.174C151.425 91.4456 152.067 91.9919 152.067 92.8743C152.067 94.2262 150.995 94.9739 148.971 94.982C146.849 94.9904 146.05 94.233 146.043 92.8743H148.201C148.201 93.387 148.523 93.6924 148.978 93.6924C149.523 93.6924 149.77 93.4875 149.77 93.1062C149.77 92.3125 148.283 92.333 147.405 92.0494C146.809 91.8557 146.267 91.418 146.267 90.4889C146.267 89.7129 146.855 88.5896 148.971 88.5896ZM103.048 92.5966C102.676 94.0481 101.46 94.9889 99.9423 94.9896C98.1104 94.9896 96.7167 93.6176 96.7186 91.6318C96.7199 89.649 97.9586 88.2766 99.9423 88.2747C101.587 88.2735 102.719 89.2189 103.059 90.6725L100.961 90.6727C100.8 90.236 100.491 89.8955 99.9423 89.8949C99.0165 89.8947 98.7723 90.866 98.7725 91.6318C98.7729 92.3986 99.0165 93.3691 99.9423 93.3691C100.489 93.3691 100.797 93.0314 100.959 92.5968L103.048 92.5966ZM87.579 87.5086H90.2582L91.4243 91.8219L92.5906 87.5086H95.2712L96.4427 94.9896H94.2324L93.6485 90.6175L92.4406 94.9896H90.4079L89.2 90.6175L88.6159 94.9896H86.4039L87.579 87.5086ZM121.941 91.2327V94.8106H119.725V88.4318H121.941V88.9303C122.503 88.4976 123.009 88.2749 124.16 88.2749C125.41 88.2749 126.416 89.1014 126.417 89.9688V94.8108H124.184V91.2992C124.185 90.7161 123.657 90.2406 123.083 90.2406C122.344 90.241 121.976 90.888 121.941 91.2327ZM141.719 89.0644V87.5078H143.961V94.8095H141.719V94.4553C141.424 94.7182 141.038 94.987 140.072 94.987C138.984 94.987 137.257 94.3892 137.256 91.8203C137.254 89.2553 138.982 88.5894 140.212 88.5894C141.104 88.5896 141.526 88.8946 141.719 89.0644ZM139.392 91.8203C139.392 92.8187 139.861 93.4567 140.632 93.4567C141.094 93.4567 141.481 93.2571 141.72 92.8411V90.926C141.6 90.5031 141.185 90.1914 140.632 90.1914C139.86 90.1909 139.392 90.8224 139.392 91.8205V91.8203ZM112.282 91.6327C112.284 89.6497 113.583 88.2771 115.664 88.2753C117.745 88.2733 119.044 89.6497 119.046 91.6327C119.048 93.618 117.745 94.9902 115.664 94.9902C113.585 94.9902 112.28 93.618 112.282 91.6327ZM116.949 91.6327C116.949 90.8665 116.681 89.8956 115.664 89.8956C114.647 89.8951 114.379 90.8665 114.379 91.6327C114.38 92.3991 114.647 93.37 115.664 93.37C116.681 93.37 116.949 92.3991 116.949 91.6327ZM103.83 87.5086H107.682C110.092 87.5086 111.735 88.9903 111.735 91.249C111.735 93.5077 110.093 94.9896 107.682 94.9896H103.83V87.5086ZM106.378 93.2211H107.543C108.297 93.2211 109.216 92.7657 109.216 91.249C109.216 89.7342 108.297 89.2771 107.543 89.2771H106.378V93.2211ZM130.415 88.2757C132.007 88.2744 133.318 88.8536 133.421 90.1251V94.8097H131.177V94.1782C130.632 94.6404 130.089 94.9869 129.108 94.9869C127.965 94.9869 127.045 94.0932 127.045 93.0452C127.045 91.9973 127.697 90.8333 130.307 90.8337C130.98 90.8337 131.176 90.5719 131.177 90.2596C131.178 89.8764 130.731 89.6627 130.357 89.6627C129.984 89.6627 129.559 89.8166 129.559 90.2173H127.457C127.457 89.2774 128.096 88.2779 130.415 88.2757ZM130.291 91.8702C129.774 91.8702 129.295 92.1436 129.295 92.6678C129.295 93.007 129.498 93.2996 130.027 93.2996C130.532 93.2996 131.073 93.0022 131.176 92.3864V91.8027C131.005 91.8955 130.618 91.8702 130.291 91.8702Z" fill="black"/>
<path d="M141.111 100.005H142.489C143.171 100.005 143.625 100.368 143.625 100.847C143.625 101.289 143.28 101.58 142.855 101.616V101.63C143.508 101.848 143.603 102.297 143.61 102.907H142.995C142.973 102.174 142.811 101.855 142.16 101.855H141.653V102.907H141.111V100.005ZM141.653 101.391H142.299C142.804 101.391 143.009 101.217 143.009 100.89C143.009 100.643 142.856 100.469 142.387 100.469H141.653V101.391ZM142.24 98.9968C142.571 98.9962 142.899 99.0603 143.205 99.1855C143.511 99.3107 143.79 99.4945 144.024 99.7264C144.258 99.9582 144.444 100.234 144.57 100.537C144.697 100.84 144.761 101.164 144.761 101.492C144.761 101.82 144.697 102.145 144.57 102.448C144.444 102.751 144.258 103.027 144.024 103.258C143.79 103.49 143.511 103.674 143.205 103.799C142.899 103.924 142.571 103.989 142.24 103.988C141.908 103.989 141.58 103.924 141.274 103.799C140.968 103.674 140.69 103.49 140.455 103.258C140.221 103.027 140.035 102.751 139.909 102.448C139.783 102.145 139.718 101.82 139.718 101.492C139.718 101.164 139.783 100.84 139.909 100.537C140.035 100.234 140.221 99.9582 140.455 99.7264C140.69 99.4945 140.968 99.3107 141.274 99.1855C141.58 99.0603 141.908 98.9962 142.24 98.9968ZM142.24 103.719C143.478 103.719 144.49 102.726 144.49 101.492C144.49 100.259 143.479 99.2651 142.24 99.2651C141.001 99.2651 139.989 100.259 139.989 101.492C139.989 102.726 141.001 103.719 142.24 103.719Z" fill="black"/>
</svg>
