<svg width="229" height="159" viewBox="0 0 229 159" fill="none" xmlns="http://www.w3.org/2000/svg">
<path fill-rule="evenodd" clip-rule="evenodd" d="M160.187 88.2288C160.508 89.1494 160.848 90.1077 161.263 91.0093L161.282 91.0469C161.924 92.9634 162 94.9548 162 96.7959C162 97.585 161.792 98.4116 161.377 99.1631C160.47 100.816 158.657 101.831 156.391 101.925C156.032 101.962 155.616 101.981 155.163 101.981C154.985 101.981 154.805 101.979 154.624 101.975C154.286 101.968 153.946 101.956 153.614 101.944C153.123 101.925 152.632 101.906 152.16 101.906C149.894 101.793 147.627 101.756 145.437 101.737C144.473 101.737 143.529 101.718 142.566 101.699C141.376 101.643 140.205 101.624 139.091 101.624H137.58C137.218 101.624 136.83 101.624 136.43 101.621C135.93 101.617 135.411 101.607 134.898 101.587L130.875 101.643L129.251 101.662C128.697 101.676 128.122 101.658 127.549 101.641C127.361 101.635 127.172 101.629 126.985 101.624C126.361 101.605 125.7 101.587 125.077 101.587C124.605 101.587 124.189 101.605 123.793 101.624C122.244 101.718 120.204 101.831 118.127 101.831C116.484 101.831 114.992 101.775 113.575 101.624C112.895 101.568 112.159 101.53 111.252 101.53C110.554 101.53 109.855 101.549 109.156 101.568C108.57 101.587 107.985 101.605 107.399 101.605H107.06C105.945 101.605 104.812 101.568 103.736 101.53C102.659 101.493 101.545 101.455 100.449 101.455C99.0328 101.455 97.8807 101.511 96.7853 101.643C96.4832 101.681 96.1621 101.699 95.7844 101.699C95.4066 101.699 95.0289 101.681 94.6512 101.662C94.1412 101.643 93.5935 101.624 93.0647 101.643C92.8508 101.651 92.6269 101.659 92.386 101.665C92.0528 101.674 91.6871 101.681 91.2705 101.681H90.3829H89.4952C88.9286 101.681 88.1731 101.681 87.4366 101.737C86.9573 101.746 86.4781 101.751 86.0011 101.756C85.5195 101.76 85.0403 101.765 84.5658 101.775C82.375 101.793 80.1087 101.831 77.8612 101.925C77.3512 101.925 76.8602 101.944 76.388 101.962C75.8781 101.981 75.3493 102 74.8394 102C74.3861 102 73.9706 101.981 73.5929 101.944C72.2142 101.887 70.8166 101.361 69.7967 100.497C68.6635 99.5388 68.0214 98.2424 68.0025 96.8147C67.9836 94.9736 68.0592 92.9822 68.7013 91.0657L68.7202 91.0281C69.1357 90.1265 69.4756 89.1682 69.7967 88.2476L69.8896 87.9854C70.1995 87.1089 70.5179 86.2083 70.9299 85.3545C71.2024 84.8123 71.4477 84.2566 71.6889 83.7102L71.8175 83.4192C72.2142 82.5176 72.6296 81.5781 73.1018 80.6951C74.1091 78.3384 75.7797 76.3484 77.3857 74.4355L77.4457 74.3638C77.592 74.1787 77.7477 74.0027 77.8995 73.823C77.9633 73.7476 78.0264 73.6714 78.0878 73.5935C82.7905 68.4646 87.0966 65.1392 91.6671 63.1101C91.9115 63.0061 92.1488 62.916 92.3832 62.8271C92.5293 62.7717 92.6742 62.7168 92.8192 62.6592C93.9713 62.2271 95.1611 61.7764 96.2943 61.2314C97.1064 60.8745 97.9374 60.6301 98.7495 60.386L99.1028 60.2778C99.5449 60.1433 100.003 60.0039 100.449 59.8411L100.487 59.8223C102.546 59.2964 105.284 58.6763 108.098 58.4509C110.062 58.1504 112.14 58 114.444 58H114.992H115.54C117.825 58 119.902 58.1504 121.885 58.4509C124.681 58.6575 127.419 59.2964 129.497 59.8223L129.534 59.8411C130.082 60.0291 130.668 60.2168 131.234 60.386C132.046 60.6301 132.877 60.8933 133.67 61.2314C134.823 61.7952 136.012 62.2458 137.164 62.678C137.354 62.7537 137.545 62.8245 137.735 62.8953C137.922 62.9653 138.11 63.0354 138.298 63.1101C142.868 65.1392 147.193 68.4646 151.877 73.5747C152.029 73.7634 152.18 73.9353 152.326 74.1072C152.399 74.1919 152.469 74.2769 152.538 74.3638C154.162 76.2988 155.843 78.3091 156.882 80.6951C157.354 81.5781 157.769 82.5176 158.166 83.4192C158.449 84.0393 158.752 84.6968 159.054 85.3357C159.466 86.1892 159.784 87.0896 160.094 87.9658L160.187 88.2288ZM160.621 98.7874C160.961 98.1487 161.15 97.4534 161.15 96.7959C161.169 95.011 161.112 93.1323 160.527 91.3665C160.093 90.427 159.753 89.4688 159.431 88.5295C159.11 87.5901 158.77 86.613 158.336 85.7114C158.034 85.0725 157.732 84.3962 157.448 83.7576L157.358 83.5515C156.991 82.7161 156.619 81.8694 156.183 81.0708L156.164 81.0332C155.21 78.8069 153.615 76.8994 152.07 75.0532L151.934 74.8899C151.726 74.6267 151.499 74.3826 151.291 74.1196C146.702 69.1033 142.472 65.8342 138.014 63.8616C137.807 63.7749 137.594 63.6943 137.378 63.6128C137.219 63.5532 137.06 63.4929 136.9 63.4294L136.563 63.2998C135.498 62.8914 134.41 62.4739 133.368 61.9641C132.632 61.626 131.82 61.3818 131.045 61.1562C130.479 60.9873 129.874 60.7993 129.308 60.5928C126.267 59.8223 123.963 59.4089 121.829 59.24H121.791C119.865 58.9583 117.825 58.8079 115.558 58.8079H115.011H114.463C112.216 58.8079 110.176 58.9395 108.231 59.24H108.193C105.435 59.4465 102.753 60.0667 100.714 60.5928C100.128 60.7993 99.5428 60.9873 98.9762 61.1562C98.2018 61.4006 97.3897 61.6448 96.6343 61.9641C95.5011 62.509 94.2923 62.96 93.1214 63.4106C92.7437 63.561 92.3659 63.6926 91.9882 63.8428C87.5499 65.8154 83.3194 69.0657 78.7111 74.1008C78.5222 74.345 78.2956 74.5894 78.0878 74.8523L77.9515 75.0154C76.4068 76.8618 74.8113 78.7693 73.8573 80.9958L73.8384 81.0332C73.4023 81.8315 73.0306 82.678 72.6639 83.5132L72.573 83.72C72.507 83.8689 72.4409 84.0198 72.3744 84.1719C72.1556 84.6719 71.9316 85.1838 71.6853 85.6738C71.251 86.5945 70.911 87.5525 70.5899 88.4919C70.2689 89.4312 69.9289 90.3894 69.4945 91.3289C68.8902 93.1135 68.8335 95.011 68.8524 96.7959C68.8713 98.825 70.6844 100.986 73.6684 101.117C74.0462 101.155 74.4239 101.173 74.8583 101.173C75.3493 101.173 75.8781 101.155 76.3692 101.136C76.8602 101.117 77.3702 101.098 77.8612 101.098C79.6431 101.024 81.4369 100.997 83.2049 100.97C83.6668 100.963 84.127 100.956 84.5848 100.948C85.5109 100.948 86.4371 100.93 87.3811 100.911L87.4366 100.91C88.1921 100.854 88.9475 100.854 89.533 100.854H90.4206H91.3083C91.6502 100.854 91.9492 100.85 92.2238 100.843C92.5256 100.836 92.7977 100.826 93.0647 100.816C93.535 100.786 93.9809 100.805 94.422 100.823C94.5301 100.827 94.6379 100.832 94.7456 100.835L94.7997 100.838C95.1577 100.856 95.4993 100.873 95.841 100.873C96.181 100.873 96.4643 100.854 96.7476 100.816C97.8808 100.666 99.0706 100.61 100.506 100.61C101.601 100.61 102.735 100.647 103.811 100.685C104.888 100.722 106.002 100.76 107.097 100.76H107.418C107.985 100.76 108.57 100.741 109.156 100.722C109.836 100.704 110.554 100.685 111.271 100.685C112.216 100.685 112.971 100.722 113.689 100.798C115.067 100.929 116.541 101.004 118.146 101.004C120.204 101.004 122.225 100.892 123.755 100.798C124.171 100.779 124.605 100.76 125.096 100.76C125.468 100.76 125.84 100.766 126.212 100.775C126.482 100.782 126.752 100.79 127.022 100.798C127.759 100.816 128.514 100.854 129.251 100.835L130.875 100.816L134.917 100.76C135.861 100.798 136.749 100.798 137.58 100.798H139.091C140.205 100.798 141.414 100.816 142.604 100.892C143.069 100.901 143.543 100.906 144.02 100.911C144.492 100.915 144.967 100.92 145.437 100.929L145.619 100.932C147.754 100.969 149.975 101.007 152.16 101.098C152.651 101.098 153.142 101.117 153.633 101.136C154.124 101.155 154.653 101.173 155.144 101.173C155.579 101.173 155.956 101.155 156.315 101.117C158.298 101.023 159.866 100.178 160.621 98.7874Z" fill="black"/>
<path d="M104.993 78.919C105.712 79.4597 106.559 79.7301 107.315 80.1742C108.421 80.8694 109.618 81.5646 110.89 81.6418C111.332 81.3521 110.89 80.599 110.798 80.1549C110.761 78.9963 109.913 78.0887 109.453 77.0266C109.047 76.0804 108.31 75.308 107.702 74.497C107.37 74.0528 106.91 73.7825 106.486 73.5122C105.398 73.1453 103.961 72.759 103.15 73.6473C102.542 74.188 102.505 75.1342 102.708 75.9259C103.095 77.1425 104.035 78.0887 104.993 78.919Z" fill="black"/>
<path d="M112.895 77.0977C113.321 78.0922 113.924 79.2428 114.953 79.6718L115.095 79.5938C115.486 78.8138 115.752 77.9557 116.089 77.1562C116.231 76.0447 116.887 75.1282 116.905 73.9777C116.905 73.1392 117.1 72.2421 116.745 71.4036C116.55 70.8771 116.461 70.2921 116.018 69.9216C115.237 69.1611 114.137 69.0636 113.215 69.2391C112.186 69.8241 111.565 71.1111 111.778 72.4371C112.026 73.9972 112.399 75.5572 112.895 77.0977Z" fill="black"/>
<path d="M119.159 80.9851C120.526 80.7602 121.972 80.6102 123.124 79.9168C124.14 79.392 125.273 78.9797 126.192 78.305C126.836 77.5553 127.266 76.6182 127.403 75.6062C127.383 74.9127 127.481 74.0131 126.817 73.4883C126.016 72.6637 124.785 72.3451 123.73 72.4763C122.558 72.8136 121.542 73.657 121.171 74.7628C120.761 75.6249 120.175 76.3746 119.882 77.2929C119.588 78.305 119.198 79.2983 118.924 80.3104C118.905 80.5353 118.905 80.8351 119.159 80.9851Z" fill="black"/>
<path d="M151.748 90.9212C151.302 90.3763 150.69 89.9253 149.836 89.4931C149.595 89.4368 149.353 89.3992 149.112 89.3428C148.741 89.2677 148.37 89.2113 147.998 89.0985C147.906 89.0798 147.794 89.0798 147.683 89.061C146.662 88.9294 145.493 88.7791 144.769 87.896L144.75 87.8772V87.8396C144.769 87.5578 144.88 87.3323 144.991 87.1256L145.01 87.1068L145.029 87.088C145.678 86.6746 146.476 86.4679 147.404 86.4679C148.203 86.4679 148.982 86.6182 149.762 86.8249C150.059 86.9001 150.356 87.1444 150.671 87.0504C150.95 86.9565 151.154 86.7122 151.191 86.4116C151.191 86.3364 151.21 86.2612 151.228 86.1861C151.228 86.0545 151.265 85.9042 151.302 85.7727C151.377 85.5472 151.432 85.3405 151.284 85.1526C150.82 84.6829 150.226 84.5325 149.595 84.3634C149.316 84.2883 149.019 84.2131 148.741 84.1004C147.701 83.7809 146.681 83.6118 145.734 83.6118C144.379 83.6118 143.265 83.95 142.393 84.6265C142.077 85.0211 141.817 85.4345 141.483 85.9042C141.186 86.8249 140.908 87.896 141.316 88.9294C141.465 89.1361 141.595 89.3804 141.706 89.6059C141.929 90.0381 142.152 90.4326 142.541 90.6957C142.875 90.8648 143.247 91.0339 143.599 91.1843C144.008 91.2218 144.416 91.2218 144.824 91.2218C146.012 91.2406 147.256 91.2594 148.351 91.9547C148.574 92.0298 148.704 92.1613 148.778 92.368C148.889 92.7063 148.741 93.1572 148.537 93.4579C147.906 94.2095 146.866 94.2846 145.92 94.3034H145.901C145.196 94.3034 144.49 94.0779 143.896 93.7209C143.562 93.533 143.284 93.2888 143.005 93.0257C142.801 92.8378 142.653 93.0445 142.504 93.2324C142.263 93.5518 141.929 94.1155 141.929 94.5289C141.929 94.6604 141.91 94.8108 141.929 94.9423C141.985 95.4496 142.486 95.7315 142.875 95.9382C143.154 96.0697 143.432 96.22 143.692 96.3891C144.732 96.577 145.734 96.7461 146.736 96.7461C147.052 96.7461 147.349 96.7274 147.646 96.6898C147.72 96.671 147.813 96.6522 147.906 96.6522C148.258 96.5958 148.611 96.5207 148.982 96.5207C149.613 96.4643 150.226 96.0133 150.783 95.7315C151.191 95.506 151.414 95.0738 151.581 94.6604C151.674 94.4162 151.804 94.2471 151.952 94.0592C152.063 93.9088 152.063 93.6833 152.1 93.4954C152.119 93.4015 152.138 93.3075 152.156 93.2136C152.212 92.9129 152.23 92.6123 152.175 92.2929C152.119 91.8043 151.989 91.3346 151.748 90.9212Z" fill="black"/>
<path fill-rule="evenodd" clip-rule="evenodd" d="M91.2617 83.5835C91.3376 83.7351 91.4324 83.906 91.5082 84.0766C92.0011 85.1579 92.1528 86.3342 92.1528 87.3205V87.5861C92.1414 87.757 92.1232 87.9211 92.0899 88.0783C92.0678 88.1831 92.039 88.2846 92.0011 88.383C91.7926 89.028 91.3565 89.5971 90.9205 90.0903C90.2001 90.6406 89.3469 91.0957 88.1715 91.551C88.0577 91.5891 87.944 91.646 87.8302 91.6838C87.7016 91.7053 87.5608 91.7268 87.4182 91.7448C87.3086 91.7588 87.1979 91.7705 87.0908 91.7788C86.5031 91.8357 85.8775 91.8735 85.195 91.8925C85.0776 91.9023 84.9553 91.9072 84.8305 91.9094C84.7133 91.9116 84.5939 91.9116 84.4746 91.9116H84.0575H84.0195L84.0006 91.9494C84.0006 91.9621 83.9835 91.9748 83.9666 91.9875C83.9583 91.9939 83.95 92.0002 83.9437 92.0063L83.83 92.1201L83.811 92.1391V92.1772C83.83 92.4997 83.8489 92.822 83.8868 93.1445C83.9248 93.486 83.9816 93.8466 84.0195 94.188C84.0385 94.3777 84.0622 94.5673 84.0859 94.757C84.1096 94.9467 84.1333 95.1364 84.1523 95.3261C84.1712 95.4211 84.1712 95.5349 84.1902 95.6486C84.2091 96.0092 84.285 96.4455 84.0954 96.7871C83.8868 97.1474 83.7541 97.2234 83.356 97.2234L83.1782 97.2229C82.6961 97.2209 82.1788 97.219 81.7066 97.3371L81.6537 97.3518C81.4802 97.4001 81.3831 97.427 81.1758 97.375C81.1378 97.3562 80.626 97.2424 80.626 97.2424C80.5753 97.0092 80.6112 96.7653 80.647 96.5224C80.6782 96.3103 80.7094 96.0988 80.6828 95.8955C80.6828 95.6108 80.7018 95.3073 80.7397 95.0227C80.8167 94.3603 80.7812 93.7231 80.7448 93.0703C80.7364 92.9189 80.7279 92.7668 80.7207 92.6135C80.7018 92.5376 80.7018 92.4807 80.7018 92.4238C80.7018 91.643 80.6108 90.8171 80.5237 90.0268L80.4932 89.7487C80.4364 89.2746 80.3795 88.7815 80.3416 88.3071C80.3226 87.4155 80.2468 86.5239 80.1709 85.6511C80.1141 84.8545 80.0382 84.0388 80.0193 83.2419C80.0059 83.0149 79.9456 82.7924 79.8854 82.5708C79.7746 82.1626 79.6644 81.7561 79.8486 81.3259C80.0227 80.9106 80.3954 80.9682 80.7596 81.0249C80.9111 81.0483 81.0611 81.0715 81.1947 81.0603C82.1047 81.174 83.0147 81.174 83.8868 81.174C85.3656 81.174 86.9013 81.174 88.38 81.6674C88.3988 81.6767 88.4129 81.6814 88.427 81.686C88.4414 81.6909 88.4557 81.6958 88.4748 81.7053C88.5127 81.7148 88.5459 81.729 88.5791 81.7431C88.6123 81.7573 88.6454 81.7717 88.6834 81.7812C89.4227 82.0656 90.1621 82.3694 90.7499 82.8816C90.7756 82.9204 90.8102 82.9502 90.8416 82.9773C90.8564 82.99 90.8704 83.0022 90.8825 83.0144C90.9774 83.1469 91.0722 83.2798 91.1669 83.4316C91.2048 83.4885 91.2238 83.5266 91.2617 83.5835ZM83.0526 88.914V88.9521V88.9712C83.2043 89.1037 83.3939 89.1228 83.5076 89.1228C83.5456 89.1228 83.5835 89.1181 83.6214 89.1132C83.6593 89.1084 83.6972 89.1037 83.7351 89.1037C83.7812 89.0923 83.8203 89.0879 83.8608 89.0861C83.8871 89.0849 83.9139 89.0849 83.9437 89.0849H84.0195C85.0622 89.028 87.5458 88.6486 88.38 86.6377C88.5506 85.9167 88.3042 84.9492 87.5269 84.4751C86.9082 84.1372 86.2153 84.0407 85.5399 83.9467L85.5173 83.9438L85.0622 83.8869C84.7589 83.8869 84.4556 83.8679 84.1712 83.83C83.7351 83.7732 83.2612 83.7351 82.901 83.811H82.882L82.863 83.83C82.5218 84.2285 82.5787 84.7785 82.6545 85.3286C82.6765 85.4279 82.6921 85.5271 82.7014 85.6225C82.708 85.6914 82.7114 85.7583 82.7114 85.822C82.7635 86.2219 82.7997 86.6218 82.8346 87.007L82.8441 87.112C82.901 87.6999 82.9578 88.3071 83.0526 88.914Z" fill="black"/>
<path fill-rule="evenodd" clip-rule="evenodd" d="M139.256 87.9048C139.293 88.2644 139.407 88.6243 139.52 88.9653C139.614 89.2493 139.709 89.5334 139.709 89.7986C139.879 90.821 139.822 91.8438 139.558 92.7717C139.444 93.2073 139.274 93.624 139.067 94.0217C138.991 94.2112 138.915 94.3816 138.859 94.552C138.821 94.6277 138.802 94.7034 138.764 94.7793L138.651 95.0632L138.519 95.1958C138.442 95.2852 138.357 95.366 138.275 95.4441C138.236 95.4817 138.197 95.5188 138.16 95.5557C138.084 95.6318 138 95.7119 137.914 95.7939C137.808 95.8955 137.697 96.0002 137.593 96.105C137.461 96.2375 137.31 96.3701 137.158 96.5027C136.252 96.9192 135.213 97.3926 134.117 97.3926H134.003C133.822 97.4119 133.64 97.4019 133.458 97.3799C133.281 97.3586 133.104 97.3262 132.927 97.2981C132.624 97.2412 132.303 97.1843 131.982 97.1843H131.888C130.66 96.6541 129.394 96.0481 128.449 94.9875C127.542 94.0974 126.994 92.98 126.447 91.7112C126.4 91.5703 126.357 91.4199 126.32 91.2625C126.282 91.1028 126.248 90.936 126.22 90.7644C126.208 90.668 126.194 90.5715 126.18 90.4746C126.15 90.2666 126.119 90.0559 126.106 89.8364V89.8174V89.7605C126.069 89.0979 126.144 88.397 126.39 87.7532C126.938 86.9578 127.618 86.0676 128.581 85.5186L128.6 85.4995C129.224 84.9124 130.093 84.6853 130.924 84.4768L131.547 84.3064C131.888 84.2876 132.171 84.2686 132.454 84.2686C133.134 84.2686 133.758 84.3442 134.325 84.4958C136.308 84.7419 138.235 86.0867 139.256 87.9048ZM133.021 94.1353C134.041 94.1353 135.024 93.7754 135.704 93.1504C136.138 92.5444 136.705 91.6165 136.535 90.575C136.403 89.2681 135.93 88.3403 135.156 87.8289C134.57 87.469 133.928 87.4312 133.286 87.3933C132.813 87.3743 132.322 87.469 131.869 87.5637C131.785 87.5876 131.709 87.6116 131.636 87.6357L131.51 87.6775C131.226 87.772 130.924 87.791 130.641 87.9045C130.515 87.9548 130.39 88.0125 130.266 88.0776C130.11 88.1597 129.957 88.2534 129.809 88.3591C129.28 88.7378 128.903 89.2871 128.77 89.9309C128.638 90.8779 129.016 91.9385 129.79 92.7717C130.433 93.321 131.245 93.7754 132.171 94.0596C132.323 94.0813 132.487 94.103 132.653 94.1177C132.776 94.1284 132.9 94.1353 133.021 94.1353Z" fill="black"/>
<path fill-rule="evenodd" clip-rule="evenodd" d="M107.017 93.8428C107.258 93.8428 107.535 93.8616 107.757 94.105C107.828 94.3228 107.822 94.5518 107.816 94.7918C107.814 94.8616 107.812 94.9324 107.812 95.0042C107.803 95.0865 107.807 95.1822 107.812 95.2849C107.817 95.3924 107.822 95.5073 107.812 95.6223C107.794 95.8657 107.738 96.0906 107.498 96.1844C107.165 96.3155 106.685 96.1656 106.352 96.128C105.89 96.0906 105.428 96.0532 104.966 96.0532H104.91C104.67 96.0532 104.467 96.0532 104.245 96.0718C104.18 96.0811 104.115 96.086 104.051 96.0906C103.986 96.0952 103.921 96.1001 103.857 96.1094C103.487 96.0718 103.394 95.7158 103.339 95.3413C103.32 95.3225 103.32 95.304 103.32 95.2852C103.303 95.2312 103.294 95.1775 103.285 95.1258C103.275 95.0696 103.266 95.0157 103.247 94.9668L103.228 94.8731L103.21 94.8919L103.136 94.9292C102.821 95.0979 102.526 95.2852 102.23 95.4724L102.132 95.5318C101.147 96.1319 100.138 96.7461 98.9213 96.7461C98.7919 96.7461 98.681 96.7461 98.5701 96.7276C98.3852 96.69 98.2004 96.6712 98.0155 96.6526C97.0728 96.5401 96.1117 96.4278 95.2614 95.9783C95.206 95.9407 95.132 95.8845 95.0766 95.8472L94.9855 95.7774C94.5503 95.4439 94.0997 95.0984 93.8751 94.5733C92.7291 92.4004 92.4888 90.0403 93.2282 88.2796V88.2608C93.3575 87.5865 93.6533 86.6873 94.4111 86.0879L94.4296 86.0694C94.6884 85.7134 95.1135 85.5823 95.5572 85.4698C95.7605 85.4136 95.9453 85.3574 96.1302 85.2825C96.4998 85.1514 96.925 85.0952 97.3316 85.0391C97.8677 84.9829 98.4222 84.908 98.9028 84.6643C99.4758 84.5894 100.067 84.5144 100.64 84.4583C100.955 84.4209 101.269 84.4021 101.583 84.3833C101.782 84.3706 101.98 84.3516 102.177 84.3325C102.563 84.2954 102.947 84.2586 103.339 84.271L103.406 84.274C103.802 84.291 104.292 84.312 104.467 84.7019C104.684 85.1868 104.64 85.8677 104.602 86.4551C104.591 86.6165 104.581 86.7708 104.577 86.9121C104.596 87.7176 104.688 88.5606 104.762 89.366C104.784 89.5896 104.805 89.8162 104.825 90.0442C104.858 90.4085 104.887 90.7771 104.91 91.1455C104.919 91.2205 104.924 91.2952 104.929 91.3701C104.933 91.4451 104.938 91.52 104.947 91.595C105.003 92.2881 105.077 92.9998 105.539 93.5806C105.797 93.8428 106.13 93.8804 106.389 93.8804C106.433 93.8804 106.481 93.876 106.532 93.8716C106.587 93.8667 106.645 93.8616 106.703 93.8616C106.814 93.8428 106.906 93.8428 107.017 93.8428ZM98.8473 93.8616C99.6422 93.8616 100.382 93.3933 100.714 92.6814C101.657 91.314 101.601 89.4597 101.528 87.7925C101.454 87.3992 101.195 87.1931 100.751 87.1931C100.585 87.1931 100.382 87.2119 100.197 87.2493C100.03 87.2869 99.864 87.3054 99.7346 87.3054H99.6976H99.4573C98.4407 87.3054 97.4795 87.8113 96.851 88.6917C96.1671 89.647 95.9823 90.8645 96.3335 91.9698C96.5368 92.6253 97.0174 93.3184 97.6458 93.6555C97.7752 93.7117 97.9046 93.7678 98.0525 93.8054C98.2373 93.8428 98.4222 93.8616 98.607 93.8428C98.681 93.8616 98.7734 93.8616 98.8473 93.8616Z" fill="black"/>
<path d="M125.134 94.3962C124.946 94.4345 124.74 94.4728 124.552 94.4728C124.346 94.4728 124.158 94.4345 123.989 94.3388L123.97 94.3197C123.313 93.7455 123.426 92.9416 123.539 92.2526C123.557 92.0612 123.595 91.889 123.595 91.7359V91.7167C123.764 91.1617 123.707 90.5493 123.651 89.9559L123.632 89.7071C123.595 89.4583 123.614 89.2095 123.651 88.9798C123.689 88.6928 123.707 88.4248 123.632 88.1569C123.37 87.2573 123.069 86.2238 122.45 85.3817C122.093 84.8841 121.492 84.6735 120.91 84.4821L120.816 84.463C120.535 84.463 120.253 84.463 119.972 84.4439C119.746 84.4247 119.521 84.4247 119.277 84.4247C118.019 84.4247 116.611 84.9415 115.485 85.5157C115.353 85.5922 115.203 85.6496 115.072 85.7262C114.696 85.8984 114.434 86.1855 114.133 86.4918C113.833 86.798 113.532 87.1233 113.119 87.3147L113.007 87.353V87.2382C113.007 87.0851 112.988 86.9128 112.969 86.7597C112.969 86.6449 112.95 86.5492 112.95 86.4343C112.969 86.3961 112.969 86.3195 112.969 86.2238C112.969 86.109 112.969 85.9941 112.932 85.8793C112.932 85.6879 112.95 85.5157 112.95 85.3243C112.95 85.1329 112.932 84.9415 112.932 84.731C112.932 84.6161 112.95 84.3865 112.857 84.3099C112.8 84.2525 112.65 84.2716 112.575 84.2716C112.444 84.2716 112.312 84.3482 112.2 84.3865C111.974 84.463 111.73 84.5587 111.449 84.5204C110.885 84.6544 110.303 84.6735 109.74 84.6735C109.271 84.6735 108.783 84.6735 108.332 84.7692C108.145 84.8075 107.957 84.8075 107.788 84.7884C107.656 84.7692 107.45 84.7884 107.337 84.9032C107.225 85.0372 107.131 85.3243 107.187 85.4965C107.243 85.6496 107.3 85.8219 107.3 85.975C107.3 86.0133 107.3 86.0516 107.3 86.0707C107.3 86.109 107.3 86.1473 107.281 86.2047C107.3 86.4726 107.15 86.6831 107.168 86.9511C107.168 87.0277 107.187 87.1233 107.187 87.1999C107.187 87.2956 107.206 87.3913 107.262 87.4679C107.337 87.5827 107.412 87.5827 107.544 87.5827C107.675 87.5827 107.807 87.621 107.938 87.6401C108.069 87.6401 108.201 87.621 108.351 87.621C108.689 87.5827 109.027 87.5444 109.365 87.5444C109.646 87.5444 109.89 87.5635 110.134 87.621L110.191 87.6401L110.21 87.6975C110.416 88.3865 110.454 89.0947 110.472 89.7837C110.491 90.1856 110.51 90.5875 110.547 90.9895C110.566 91.2191 110.585 91.4679 110.604 91.6976C110.604 91.8124 110.604 91.9847 110.623 92.1569C110.641 92.578 110.641 92.9991 110.641 93.401C110.641 94.09 110.641 94.779 110.698 95.468C110.698 95.5637 110.679 95.6403 110.679 95.736C110.641 96.0805 110.585 96.425 110.904 96.6164C111.28 96.6929 111.655 96.7312 112.031 96.7695C112.462 96.8077 112.932 96.846 113.363 96.98C113.495 96.98 113.589 96.9417 113.645 96.8652C113.758 96.7121 113.701 96.425 113.664 96.157C113.645 96.023 113.626 95.9082 113.608 95.7934V95.7742V95.7551C113.758 95.0852 113.776 94.3579 113.814 93.6498C113.833 93.3436 113.833 93.0373 113.852 92.7311C113.852 92.6928 113.852 92.6737 113.852 92.6354C113.852 92.5589 113.87 92.5014 113.87 92.4249C113.889 92.2909 113.908 92.1569 113.927 92.023C113.945 91.9464 113.945 91.8699 113.964 91.7933V91.7742C114.114 91.4488 114.189 91.1043 114.246 90.7598C114.34 90.3387 114.415 89.9177 114.621 89.5349C115.091 88.0994 116.574 87.1233 118.301 87.1233C118.639 87.1233 118.977 87.1616 119.296 87.2382C119.502 87.2765 119.652 87.3913 119.784 87.5253C119.972 87.7167 120.084 87.9463 120.141 88.1186C120.178 88.1951 120.197 88.2717 120.216 88.3291C120.422 89.4392 120.441 90.5493 120.478 91.621C120.516 92.9799 120.554 94.3771 120.929 95.736C121.248 96.3675 121.868 96.7886 122.412 97.114C123.294 97.2862 124.196 97.4202 125.097 97.4011C125.885 97.3819 125.829 96.5398 125.848 95.8891C125.848 95.6785 125.904 95.468 125.979 95.2766C126.073 94.9895 126.148 94.7024 126.054 94.4154C125.81 94.2814 125.453 94.3388 125.134 94.3962Z" fill="black"/>
</svg>
