<svg width="229" height="159" viewBox="0 0 229 159" fill="none" xmlns="http://www.w3.org/2000/svg">
<path fill-rule="evenodd" clip-rule="evenodd" d="M71.43 82.3C69.5988 82.3 68.6516 81.0911 68.6516 79.3728L75.724 79.4365C75.8503 78.3545 75.8503 78.0364 75.8503 77.4001C75.8503 74.3455 74.0822 72.1819 71.2406 72.1819C68.0201 72.1819 65.3048 75.1729 65.3048 78.991C65.3048 82.6819 67.6412 84.9092 70.7985 84.9092C72.7181 84.9092 73.6021 84.4553 74.325 84.0842C74.4582 84.0159 74.5859 83.9502 74.7136 83.8909L75.1556 80.9001C73.3876 82.0454 72.6298 82.3 71.43 82.3ZM72.6298 76.5093V77.1455V77.2092H68.9673C69.2198 75.9365 69.7882 74.6001 71.1143 74.6001C72.1877 74.6001 72.6298 75.4275 72.6298 76.5093Z" fill="black"/>
<path d="M61.1621 69H62.0123L61.5872 72.2849H64.6845L64.3201 74.9257H61.2228L60.7977 78.1461L60.6155 79.3055C60.5548 79.6275 60.5548 79.9496 60.5548 80.2716C60.4941 81.1734 60.7977 81.8174 61.405 81.9463C62.2553 82.0751 62.7411 81.9463 64.0165 81.1734L63.5913 84.1362C62.1945 84.7159 61.5872 84.9091 60.6763 84.9091C58.6722 84.9091 57.3361 83.3633 57.3361 80.9801C57.3361 80.2716 57.3361 79.8852 57.6397 77.9529L58.0041 74.9901H56L56.1215 74.1527L61.1621 69Z" fill="black"/>
<path d="M167.746 84.2099L168.678 76.7258C168.74 76.2856 168.802 75.7824 168.429 75.468C168.181 75.2793 167.808 75.1535 167.435 75.2793C166.813 75.5309 166.254 76.034 165.756 76.5371L164.7 84.2099C163.519 84.2099 162.648 84.2099 161.467 84.2099L162.462 76.3484C162.462 75.9711 162.338 75.6566 162.027 75.468C161.778 75.2793 161.53 75.2793 161.219 75.2793C160.535 75.468 159.976 75.9711 159.478 76.5371L158.484 84.2728H155.251L156.805 72.4492H160.038C160.038 72.9523 159.913 73.5183 159.789 74.0843H159.851C160.846 72.8265 162.338 71.8831 163.954 72.3234C164.575 72.4492 165.135 72.9523 165.508 73.5183C165.57 73.707 165.694 73.8328 165.756 74.0215H165.819C167.062 72.8894 168.616 71.6945 170.356 72.3863C171.289 72.7007 171.848 73.707 171.972 74.6504C172.035 75.0277 171.972 75.468 171.972 75.8453L170.853 84.2728H170.791H167.746V84.2099Z" fill="black"/>
<path fill-rule="evenodd" clip-rule="evenodd" d="M93.2192 89.9999H96.3646L97.0904 84.1794C97.7557 84.4955 98.4211 84.6855 99.1469 84.6855C101.082 84.6855 102.716 83.4201 103.562 81.6486C104.409 79.6872 104.833 76.8402 103.683 74.8788C103.32 74.246 102.776 73.6134 102.171 73.1706C100.357 71.7155 97.5743 72.1584 95.4572 72.6645L93.2192 89.9999ZM97.803 81.5995C97.7089 81.5502 97.6147 81.5009 97.5138 81.4587L98.3606 75.0053C99.3284 74.6889 100.478 75.0685 100.962 76.0807C101.627 77.4728 101.385 79.2443 100.78 80.5729C100.296 81.4587 99.3889 82.028 98.4211 81.8383C98.1793 81.7961 97.9911 81.6979 97.803 81.5995Z" fill="black"/>
<path fill-rule="evenodd" clip-rule="evenodd" d="M114.715 82.4722C116.199 80.1128 116.817 76.6695 115.272 74.1189C114.53 72.971 113.355 72.3335 112.056 72.2058C109.892 72.0147 107.914 72.971 106.863 74.9478C105.873 76.9246 105.255 79.4751 105.873 81.8345C106.368 83.2373 107.666 84.5127 109.088 84.7676C111.314 85.2779 113.479 84.385 114.715 82.4722ZM109.892 75.5218C110.325 75.0755 110.943 74.6289 111.624 74.7566C111.933 74.8203 112.242 74.9478 112.427 75.2666C113.046 76.2869 112.922 77.7535 112.737 78.9651C112.551 80.0491 112.242 81.0694 111.5 81.8982C111.129 82.1534 110.696 82.4085 110.201 82.2808C109.459 82.0896 109.088 81.3243 108.965 80.5591C108.779 78.7737 109.027 76.9883 109.892 75.5218Z" fill="black"/>
<path d="M118.032 79.1819C118.155 78.3547 118.216 77.4637 118.4 76.6365H122.995C122.933 77.5274 122.811 78.291 122.688 79.1819H118.032Z" fill="black"/>
<path fill-rule="evenodd" clip-rule="evenodd" d="M150.374 84H153.668L155.251 72.0027C152.844 71.4895 149.867 71.1687 147.713 72.3877C145.496 73.7991 144.166 76.1729 144.102 78.7393C143.976 80.8565 144.546 82.9094 146.383 84C147.777 84.6416 149.36 84.0642 150.437 83.166H150.5C150.437 83.4868 150.374 83.6792 150.374 84ZM147.523 79.7017C147.396 77.6487 147.903 75.4673 149.74 74.5049C150.31 74.2483 151.007 74.1841 151.704 74.3125L151.577 75.2107L150.88 80.4072C150.247 80.9849 149.487 81.5623 148.6 81.2415C147.967 81.0488 147.586 80.3433 147.523 79.7017Z" fill="black"/>
<path d="M128.157 69H129.007L128.582 72.2849H131.679L131.315 74.9257H128.217L127.792 78.1461L127.61 79.3055C127.549 79.6275 127.549 79.9496 127.549 80.2716C127.489 81.1734 127.792 81.8174 128.4 81.9463C129.25 82.0751 129.736 81.9463 131.011 81.1734L130.586 84.1362C129.189 84.7159 128.582 84.9091 127.671 84.9091C125.667 84.9091 124.331 83.3633 124.331 80.9801C124.331 80.2716 124.331 79.8852 124.634 77.9529L124.999 74.9901H122.995L123.116 74.2816L128.157 69Z" fill="black"/>
<path fill-rule="evenodd" clip-rule="evenodd" d="M138.425 82.2363C136.593 82.2363 135.646 81.0273 135.646 79.3091L142.719 79.4365C142.845 78.3545 142.845 78.0364 142.845 77.4001C142.845 74.3455 141.077 72.1819 138.235 72.1819C135.015 72.1819 132.299 75.1729 132.299 78.991C132.299 82.6819 134.636 84.9092 137.793 84.9092C139.713 84.9092 140.597 84.4553 141.32 84.0842C141.453 84.0159 141.581 83.9502 141.708 83.8909L142.15 80.8364C140.382 81.9819 139.624 82.2363 138.425 82.2363ZM139.688 76.4456V77.0818V77.1455H136.025C136.278 75.8728 136.846 74.5364 138.172 74.5364C139.246 74.5364 139.688 75.3638 139.688 76.4456Z" fill="black"/>
<path d="M88.9026 84.2099L89.835 76.7258C89.8971 76.2856 89.9593 75.7824 89.5863 75.468C89.3377 75.2793 88.9647 75.1535 88.5918 75.2793C87.9702 75.5309 87.4107 76.034 86.9135 76.5371L85.9189 84.2099C84.7379 84.2099 83.8676 84.2099 82.6866 84.2099L83.6811 76.3484C83.6811 75.9711 83.5568 75.6566 83.246 75.468C82.9974 75.2793 82.7487 75.2793 82.4379 75.2793C81.7542 75.468 81.1947 75.9711 80.6975 76.5371L79.7029 84.2728H76.4706L78.0246 72.4492H81.2569C81.2569 72.9523 81.1326 73.5183 81.0083 74.0843H81.0704C82.065 72.8265 83.5568 71.8831 85.173 72.3234C85.7946 72.4492 86.354 72.9523 86.727 73.5183C86.8513 73.707 86.9135 73.8328 86.9756 74.0215H87.0378C88.281 72.8894 89.835 71.6945 91.5755 72.3863C92.5079 72.7007 93.0673 73.707 93.1916 74.6504C93.2538 75.0277 93.1916 75.468 93.1916 75.8453L92.1349 84.2099H92.0727H88.9026Z" fill="black"/>
</svg>
