<svg width="229" height="159" viewBox="0 0 229 159" fill="none" xmlns="http://www.w3.org/2000/svg">
<path fill-rule="evenodd" clip-rule="evenodd" d="M114 102.198C114 98.4238 116.995 95.3958 120.727 95.3958C124.373 95.4397 127.368 98.4238 127.455 102.198C127.368 105.928 124.373 108.956 120.727 109C116.995 108.912 114 105.884 114 102.198ZM117.038 102.154C116.951 104.524 118.644 106.411 120.727 106.455C122.724 106.455 124.416 104.524 124.416 102.154C124.416 99.7402 122.724 97.8533 120.727 97.8533C118.644 97.8533 116.995 99.7842 117.038 102.154Z" fill="black"/>
<path d="M139.227 96.2461H128.295V98.5489H132.395V109H135.26V98.5489H139.227V96.2461Z" fill="black"/>
<path fill-rule="evenodd" clip-rule="evenodd" d="M142.675 96.2461H146.081L151 109H147.763L146.753 106.132H141.792L140.783 109H137.545L142.675 96.2461ZM142.675 103.925H144.399H146.123L144.399 99.2471L142.675 103.925Z" fill="black"/>
<path d="M77 98.5489H80.6807V109H83.4102V98.5489H87.0909V96.2461H77V98.5489Z" fill="black"/>
<path fill-rule="evenodd" clip-rule="evenodd" d="M87.9318 102.198C87.9318 98.4238 90.8927 95.3958 94.6373 95.3958C98.2949 95.4397 101.299 98.4238 101.386 102.198C101.299 105.928 98.2949 108.956 94.6373 109C90.9362 108.912 87.9318 105.884 87.9318 102.198ZM90.9362 102.154C90.8927 104.524 92.5473 106.411 94.6373 106.455C96.6838 106.455 98.3384 104.524 98.3384 102.154C98.3384 99.7402 96.6838 97.8533 94.6373 97.8533C92.5473 97.8533 90.8927 99.7842 90.9362 102.154Z" fill="black"/>
<path d="M107.715 101.605L104.744 96.2461H101.386L106.294 104.129V109H107.715H109.092V104.129L114 96.2461H110.857L107.715 101.605Z" fill="black"/>
<path fill-rule="evenodd" clip-rule="evenodd" d="M110.598 51.1265C110.641 51.074 110.679 51.0278 110.734 51C110.723 51.0227 110.709 51.0425 110.692 51.0608C110.668 51.0876 110.639 51.1113 110.609 51.1367C110.58 51.1604 110.549 51.1858 110.519 51.2166C110.549 51.1858 110.574 51.155 110.598 51.1265ZM105.13 61.8665C100.56 61.0439 97.2409 59.572 96.2494 57.8835C96.0338 57.5374 95.9476 57.1909 95.9476 56.8445C95.9476 56.6282 95.9907 56.4116 96.0769 56.1953C96.9391 53.7708 102.587 51.7361 109.915 51.2166C107.673 53.2512 105.949 57.061 105.13 61.8665ZM113.192 54.29C113.256 54.29 113.321 54.2793 113.386 54.2686C113.45 54.2578 113.515 54.2468 113.58 54.2468C113.634 54.2468 113.688 54.2544 113.742 54.2632L113.774 54.2683C113.838 54.2793 113.903 54.29 113.968 54.29C113.838 54.2468 113.709 54.2468 113.58 54.2468C113.45 54.2468 113.321 54.2468 113.192 54.29ZM116.037 55.6323C115.778 55.3726 115.563 55.1562 115.304 54.9397C115.497 55.0686 115.665 55.2456 115.846 55.4348L115.933 55.5256C115.967 55.561 116.001 55.5967 116.037 55.6323ZM109.57 62.4292C110.864 62.5159 112.243 62.5591 113.58 62.5591C114.916 62.5591 116.252 62.5159 117.589 62.4292C116.856 58.4897 115.304 56.022 113.58 56.022C111.812 56.022 110.303 58.4463 109.57 62.4292ZM110.303 63.3169C110.131 63.3062 109.958 63.2952 109.786 63.2952C110.131 63.3384 110.476 63.3384 110.821 63.3384C110.648 63.3384 110.476 63.3276 110.303 63.3169ZM118.103 63.2485C118.206 63.2427 118.31 63.2366 118.413 63.2285C118.483 63.2229 118.553 63.2166 118.623 63.2087C118.504 63.2236 118.379 63.2334 118.249 63.2417L118.103 63.2485ZM116.08 63.3818C115.735 63.3818 115.433 63.425 115.088 63.425C115.433 63.3818 115.778 63.3818 116.08 63.3818ZM108.493 63.2087C108.622 62.1697 108.794 61.2605 109.01 60.3513C108.794 61.2173 108.622 62.1697 108.493 63.2087ZM109.01 60.3513L109.164 59.8455L109.274 59.4805C109.351 59.2234 109.422 58.9766 109.484 58.7495C109.312 59.2258 109.139 59.7886 109.01 60.3513ZM114.054 54.2903C114.183 54.3335 114.312 54.3335 114.442 54.377C114.312 54.377 114.183 54.3335 114.054 54.2903ZM114.485 54.4202C114.614 54.4634 114.7 54.5068 114.83 54.5933C114.7 54.55 114.614 54.4634 114.485 54.4202ZM115.218 54.8965C115.132 54.8105 115.004 54.7249 114.876 54.6389L114.873 54.6367C114.917 54.6514 114.96 54.6707 115.002 54.6951L115.029 54.7117C115.046 54.7222 115.062 54.7336 115.077 54.7458C115.13 54.7871 115.178 54.8374 115.218 54.8965ZM111.165 55.6323C111.381 55.3726 111.64 55.1128 111.855 54.9397C111.596 55.1128 111.381 55.3293 111.165 55.6323ZM110.161 57.1187C110.135 57.1692 110.11 57.2219 110.088 57.2773C110.217 57.061 110.303 56.8877 110.389 56.7146C110.356 56.7812 110.317 56.8479 110.276 56.917L110.223 57.0066C110.202 57.043 110.181 57.0803 110.161 57.1187ZM110.777 56.1516C110.907 55.9785 110.993 55.8486 111.122 55.7188C110.993 55.8054 110.864 55.9785 110.777 56.1516ZM110.476 51.2598L110.131 51.6062C110.26 51.5195 110.346 51.3896 110.476 51.2598ZM110.088 51.6926C110.061 51.7334 110.034 51.7698 110.006 51.8047L109.958 51.866C109.916 51.9194 109.873 51.9729 109.831 52.0369C109.916 51.9077 110.002 51.7788 110.088 51.6926ZM104.526 62.689C104.311 62.6458 104.138 62.6023 103.923 62.5591C104.095 62.6023 104.311 62.6458 104.526 62.689ZM103.751 62.5159C103.578 62.4727 103.363 62.4292 103.19 62.386C103.363 62.4727 103.535 62.5159 103.751 62.5159ZM101.366 61.9626C101.875 62.1309 102.425 62.2585 103.018 62.386L102.787 62.333C102.306 62.2227 101.806 62.1079 101.366 61.9626ZM100.927 61.8447C100.851 61.823 100.776 61.8013 100.69 61.7798C100.817 61.8223 100.983 61.8643 101.153 61.9067L101.112 61.8965L101.04 61.8767L100.927 61.8447ZM99.9137 61.5632C99.612 61.4768 99.3533 61.3901 99.0946 61.2603C99.2234 61.3035 99.3628 61.3572 99.5023 61.4109C99.643 61.4653 99.7838 61.5198 99.9137 61.5632ZM98.7066 61.1089C98.7605 61.1306 98.8144 61.1523 98.8791 61.1738C98.7942 61.1313 98.6681 61.0886 98.5409 61.0461C98.6026 61.0669 98.6546 61.0879 98.7066 61.1089ZM98.3186 60.9573C98.2324 60.9141 98.1031 60.8706 98.0169 60.8274L98.0197 60.8289C98.1049 60.8716 98.1907 60.9146 98.3186 60.9573ZM97.6113 60.6323C97.6603 60.6587 97.7092 60.6814 97.7582 60.6978C97.6799 60.678 97.6105 60.6494 97.55 60.616C97.4772 60.5757 97.4173 60.5286 97.3702 60.4812L97.4204 60.5146C97.4639 60.5435 97.5075 60.5718 97.551 60.5979L97.6113 60.6323ZM96.3764 60.0107L96.4015 60.0276L96.4033 60.0291C96.4347 60.0498 96.4663 60.0708 96.508 60.0916C96.4962 60.0798 96.4811 60.0679 96.4636 60.0559L96.4431 60.0427L96.4048 60.02L96.3519 59.9922L96.3336 59.9836C96.3488 59.9927 96.3628 60.0017 96.3764 60.0107ZM109.61 52.2476C109.636 52.2036 109.664 52.1609 109.7 52.1255C109.657 52.2122 109.57 52.342 109.484 52.4285C109.502 52.4104 109.518 52.3904 109.533 52.3694L109.546 52.3516L109.56 52.3293L109.593 52.2761L109.61 52.2476ZM109.398 52.5586C109.312 52.6453 109.269 52.7751 109.182 52.905C109.269 52.7751 109.312 52.6885 109.398 52.5586ZM108.536 54.0305C108.708 53.6841 108.881 53.3376 109.096 53.0347C109.048 53.1189 108.997 53.2068 108.944 53.2969L108.937 53.3083C108.854 53.4507 108.767 53.5989 108.684 53.7493C108.632 53.8425 108.582 53.9365 108.536 54.0305ZM108.353 54.3369L108.313 54.4236C108.29 54.4761 108.264 54.532 108.234 54.5933C108.264 54.532 108.295 54.4761 108.324 54.4238C108.376 54.3284 108.422 54.2444 108.449 54.1604C108.432 54.1865 108.416 54.2126 108.402 54.2393C108.384 54.271 108.368 54.3035 108.353 54.3369ZM108.191 54.7666C108.148 54.8965 108.061 55.0264 108.018 55.1995C108.061 55.0264 108.105 54.8965 108.191 54.7666ZM107.932 55.3291C107.846 55.5022 107.803 55.6755 107.717 55.8486C107.76 55.6755 107.846 55.5022 107.932 55.3291ZM106.941 58.1001C106.898 58.2732 106.854 58.4465 106.768 58.6628C106.854 58.4897 106.898 58.3167 106.941 58.1001ZM106.705 59.1187L106.721 59.0569C106.739 58.9856 106.755 58.9126 106.768 58.8359C106.682 59.0525 106.639 59.3123 106.596 59.572C106.51 59.8318 106.466 60.0483 106.423 60.3081C106.466 60.0483 106.553 59.8318 106.596 59.572C106.617 59.4421 106.65 59.3232 106.682 59.2041L106.705 59.1187ZM106.315 60.7627L106.341 60.6499L106.363 60.5503L106.38 60.4812C106.337 60.6978 106.294 60.8708 106.251 61.0439C106.272 60.9575 106.294 60.8601 106.315 60.7627ZM106.208 61.3037L106.189 61.3962C106.153 61.572 106.122 61.7251 106.122 61.9099C106.165 61.6934 106.208 61.4768 106.208 61.3037ZM117.546 85.3311C120.65 82.3438 122.546 75.8933 122.546 68.3604C122.546 68.3604 122.546 67.3645 122.503 67.1047C130.22 65.6763 135.566 62.4724 136.557 58.7061C139.877 61.5635 141.644 64.9402 141.644 68.4468C141.687 76.9756 131.341 84.1621 117.546 85.3311ZM118.667 63.2085C118.322 60.481 117.632 58.2297 116.727 56.7146C117.632 58.2297 118.279 60.481 118.667 63.2085ZM122.029 61.8665C126.599 61.0439 129.918 59.572 130.91 57.8835C131.082 57.5374 131.212 57.1909 131.255 56.8445C131.255 56.6282 131.212 56.4116 131.125 56.1953C130.263 53.7708 124.616 51.7361 117.287 51.2166C119.486 53.2512 121.21 57.061 122.029 61.8665ZM117.028 51.6494C117.085 51.7068 117.134 51.7556 117.178 51.8035C117.234 51.8643 117.282 51.9233 117.33 51.9958C117.306 51.9719 117.283 51.9446 117.258 51.9153L117.211 51.8577L117.17 51.8081C117.128 51.7573 117.082 51.7034 117.028 51.6494ZM120.951 61.3037C120.951 61.4309 120.966 61.5432 120.987 61.6582L121.003 61.7378L121.019 61.8162L121.038 61.9099C120.994 61.6934 120.951 61.4768 120.951 61.3037ZM120.844 60.8057L120.842 60.7976L120.831 60.7366C120.857 60.8442 120.883 60.958 120.908 61.0872C120.887 61.0005 120.865 60.9031 120.844 60.8057ZM120.391 58.8359C120.477 59.0525 120.52 59.3123 120.563 59.572C120.52 59.3123 120.434 59.0957 120.391 58.8359ZM120.175 58.1001C120.248 58.2451 120.29 58.4207 120.327 58.5754L120.348 58.6628C120.329 58.5859 120.309 58.509 120.286 58.428C120.268 58.3645 120.248 58.2986 120.223 58.2285C120.209 58.1873 120.193 58.1445 120.175 58.1001ZM119.701 56.5847L119.442 55.9353C119.499 56.0295 119.539 56.1238 119.573 56.218C119.591 56.2681 119.608 56.3181 119.624 56.3682C119.648 56.4404 119.672 56.5125 119.701 56.5847ZM119.141 55.1562C119.098 55.0264 119.011 54.8965 118.968 54.7234C119.055 54.8965 119.098 55.0264 119.141 55.1562ZM118.882 54.5933C118.796 54.4634 118.753 54.3335 118.667 54.1604C118.753 54.2903 118.839 54.4202 118.882 54.5933ZM117.869 52.7319C117.901 52.7861 117.934 52.8401 117.977 52.905C117.951 52.8662 117.925 52.8313 117.901 52.7979C117.843 52.7195 117.791 52.6497 117.761 52.5586C117.804 52.6235 117.837 52.6777 117.869 52.7319ZM117.618 52.3584L117.599 52.3286L117.567 52.2769C117.535 52.2229 117.503 52.1687 117.459 52.1255C117.477 52.1616 117.503 52.2051 117.533 52.25C117.574 52.3127 117.625 52.3779 117.675 52.4285C117.654 52.4072 117.635 52.3835 117.618 52.3584ZM122.988 62.606C122.394 62.7188 121.822 62.8274 121.184 62.9036C121.91 62.8169 122.595 62.688 123.236 62.5591L122.988 62.606ZM129.961 60.4377C129.902 60.4675 129.838 60.4971 129.772 60.5269C129.832 60.4956 129.895 60.4646 129.961 60.4377ZM129.772 60.5269L129.703 60.5635C129.597 60.6204 129.499 60.6729 129.401 60.6975C129.462 60.6667 129.529 60.636 129.598 60.6052L129.681 60.5679L129.697 60.5605L129.772 60.5269ZM128.955 60.9155C129.03 60.8862 129.098 60.8567 129.185 60.8274C129.056 60.8706 128.927 60.9141 128.84 60.9573C128.882 60.9434 128.919 60.9294 128.955 60.9155ZM127.926 61.3323L127.999 61.3044L128.056 61.282L128.108 61.2603C127.806 61.3469 127.461 61.4768 127.159 61.6067C127.224 61.5789 127.291 61.553 127.359 61.5283C127.442 61.498 127.527 61.4695 127.612 61.4409L127.633 61.4336C127.732 61.4006 127.83 61.3677 127.926 61.3323ZM127.116 61.6067C127.03 61.6284 126.954 61.6499 126.879 61.6716C126.811 61.6912 126.744 61.7102 126.668 61.7297L126.757 61.7073L126.876 61.6765C126.938 61.6602 126.998 61.6436 127.052 61.6272L127.116 61.6067ZM125.866 61.9531C125.305 62.1262 124.745 62.2561 124.098 62.386C124.702 62.2561 125.305 62.1262 125.866 61.9531ZM124.012 62.4292C123.84 62.4724 123.624 62.5159 123.452 62.5591C123.624 62.5159 123.797 62.4724 124.012 62.4292ZM116.425 51C116.48 51.0278 116.518 51.074 116.561 51.1262C116.585 51.155 116.61 51.1858 116.64 51.2166C116.62 51.1965 116.601 51.1787 116.581 51.1624L116.551 51.1367C116.498 51.0938 116.453 51.0559 116.425 51ZM105.69 65.936C105.561 65.936 105.475 65.8928 105.346 65.8928C105.475 65.936 105.561 65.936 105.69 65.936ZM103.492 65.5896C103.363 65.5461 103.19 65.5461 103.061 65.5029C103.233 65.5029 103.363 65.5461 103.492 65.5896ZM102.587 65.3733C102.457 65.3298 102.328 65.3298 102.155 65.2866L102.201 65.3013L102.255 65.3191L102.311 65.3352C102.328 65.3398 102.346 65.3442 102.364 65.3481C102.397 65.3555 102.431 65.3616 102.467 65.366C102.505 65.3706 102.544 65.3733 102.587 65.3733ZM100.431 64.8538C100.302 64.8103 100.172 64.7671 100.086 64.7671C100.215 64.7671 100.345 64.8103 100.431 64.8538ZM98.1462 64.0745C98.2755 64.1611 98.4049 64.2043 98.4911 64.2043C98.3618 64.1611 98.2755 64.1177 98.1462 64.0745ZM96.8529 63.5984C96.7236 63.5549 96.5511 63.4685 96.4218 63.3818C96.483 63.4126 96.5388 63.438 96.591 63.4617L96.5932 63.4624L96.5984 63.4646C96.6307 63.4795 96.6617 63.4937 96.6919 63.5083C96.7475 63.5349 96.8002 63.563 96.8529 63.5984ZM95.7752 63.0786C95.8614 63.1218 95.9907 63.1653 96.077 63.2085C95.949 63.1658 95.8633 63.1228 95.778 63.0801L95.7752 63.0786ZM95.4303 62.9053C95.3441 62.8621 95.2147 62.7754 95.1285 62.7322C95.2147 62.7754 95.3009 62.8188 95.4303 62.9053ZM95.4303 59.3123C95.4734 59.3555 95.5165 59.3555 95.5596 59.3989C95.4966 59.3989 95.4796 59.3757 95.4582 59.3464L95.4451 59.3291C95.4407 59.3235 95.4358 59.3179 95.4303 59.3123ZM104.613 67.1482C96.896 65.7197 91.5935 62.5159 90.5589 58.7495C87.2394 61.6069 85.4719 64.9836 85.4288 68.5337C85.4288 77.019 95.7752 84.2056 109.57 85.3745C106.466 82.3872 104.57 75.9368 104.57 68.4038C104.57 68.4038 104.613 67.3647 104.613 67.1482ZM131.1 59.7542C131.116 59.7444 131.13 59.7344 131.145 59.7246L131.154 59.7188L131.177 59.7034L131.199 59.6899C131.216 59.6794 131.234 59.6689 131.255 59.6584C131.232 59.6807 131.199 59.7029 131.16 59.7251C131.141 59.7361 131.12 59.7471 131.099 59.7581L131.044 59.7856C131.065 59.7751 131.083 59.7646 131.1 59.7542ZM131.599 59.4421C131.643 59.3989 131.686 59.3555 131.772 59.3123C131.729 59.3555 131.643 59.3989 131.599 59.4421ZM131.88 62.7974C131.944 62.7649 132.009 62.7324 132.074 62.689C132.035 62.7283 131.987 62.7585 131.93 62.7881C131.897 62.8052 131.861 62.8223 131.822 62.8401L131.815 62.8438L131.748 62.8752L131.686 62.9055C131.703 62.894 131.72 62.8833 131.737 62.873L131.771 62.854L131.798 62.8394L131.83 62.8223L131.88 62.7974ZM131.279 63.1074L131.255 63.1221L131.211 63.1482L131.191 63.1594L131.171 63.1682C131.138 63.1826 131.108 63.1956 131.082 63.2085C131.122 63.1953 131.157 63.1782 131.191 63.1594C131.262 63.1282 131.345 63.0908 131.427 63.0354C131.406 63.0425 131.385 63.0508 131.366 63.0598L131.348 63.0691L131.326 63.0806C131.31 63.0891 131.294 63.0981 131.279 63.1074ZM129.746 63.8147L129.358 63.9446C129.53 63.9014 129.66 63.8579 129.746 63.8147ZM128.021 64.4207C127.849 64.4639 127.676 64.5073 127.547 64.5938C127.578 64.5835 127.61 64.5732 127.645 64.5625C127.758 64.5278 127.889 64.4871 128.021 64.4207ZM124.903 65.313C124.931 65.3071 124.96 65.3003 124.988 65.2915L124.984 65.293L124.98 65.2944L124.912 65.3167C124.883 65.3257 124.854 65.3345 124.825 65.342C124.755 65.3606 124.686 65.3733 124.616 65.3733C124.659 65.3586 124.703 65.3489 124.747 65.3408L124.81 65.3296L124.815 65.3289C124.844 65.324 124.874 65.3191 124.903 65.313ZM124.055 65.5029C123.926 65.5461 123.797 65.5461 123.667 65.5896C123.797 65.5461 123.926 65.5029 124.055 65.5029ZM123.086 65.6909C123.055 65.6975 123.025 65.7026 122.996 65.7073L122.97 65.7144C123.033 65.7051 123.095 65.6946 123.15 65.6763C123.128 65.6819 123.107 65.6868 123.086 65.6909ZM122.886 65.7268L122.934 65.7195L122.936 65.7168C122.86 65.7283 122.792 65.7385 122.723 65.7617C122.752 65.7522 122.784 65.7449 122.816 65.7385C122.839 65.7341 122.862 65.7305 122.886 65.7268ZM94.2447 58.0564C94.2488 58.0605 94.2529 58.0647 94.2564 58.0696C94.2615 58.0764 94.2654 58.0847 94.2662 58.0959C94.2637 58.054 94.2232 58.0134 94.2232 58.0134C94.2232 58.0349 94.234 58.0457 94.2447 58.0564ZM94.0939 57.7537C94.0939 57.7388 94.0889 57.7241 94.0822 57.7109C94.0695 57.6858 94.0508 57.667 94.0508 57.667L94.051 57.6858C94.0513 57.6936 94.0521 57.6997 94.0541 57.7053C94.0585 57.718 94.0691 57.7288 94.0939 57.7537ZM93.9646 57.4072C93.9646 57.3638 93.9646 57.3638 93.9214 57.3206C93.9214 57.3638 93.9214 57.4072 93.9646 57.4072ZM93.9214 61.9961C93.9646 62.0286 94.0077 62.061 94.0508 62.0828C94.0018 62.0337 93.939 61.9985 93.8859 61.9692L93.9214 61.9961ZM93.8842 61.9683C93.8535 61.9458 93.8228 61.925 93.7921 61.9097C93.8105 61.928 93.8446 61.9465 93.8842 61.9683ZM92.7575 61.1089L92.7086 61.0715C92.6817 61.0503 92.655 61.0276 92.6282 61.0005C92.6684 61.0208 92.7087 61.0503 92.749 61.085C92.7949 61.1248 92.8409 61.1709 92.8868 61.217C92.8603 61.1904 92.8339 61.168 92.8074 61.147L92.7575 61.1089ZM90.8607 58.6194C90.8821 58.6626 90.9036 58.7166 90.9251 58.7705C90.9467 58.8247 90.9684 58.8789 90.99 58.9224C90.99 58.8564 90.9398 58.7651 90.8968 58.687C90.8835 58.6628 90.8709 58.6399 90.8607 58.6194ZM92.0246 60.3945C91.9384 60.3079 91.8091 60.178 91.7229 60.0481C91.766 60.113 91.8199 60.1672 91.8737 60.2214C91.9276 60.2756 91.9815 60.3296 92.0246 60.3945ZM136.557 57.7104C136.557 57.7537 136.557 57.7971 136.514 57.8403C136.516 57.7966 136.526 57.7417 136.557 57.7104ZM136.514 57.8835C136.514 57.8716 136.513 57.8572 136.514 57.8403V57.8835ZM135.652 59.7451C135.684 59.7019 135.716 59.6587 135.738 59.6152C135.706 59.6794 135.674 59.7434 135.625 59.8076L135.602 59.8354C135.591 59.8486 135.579 59.8618 135.566 59.875C135.587 59.8315 135.619 59.7883 135.652 59.7451ZM135.867 59.4419C135.91 59.3555 135.997 59.2256 136.04 59.1389C135.974 59.2051 135.933 59.2964 135.899 59.3743C135.888 59.3984 135.878 59.4214 135.867 59.4419ZM136.126 59.009C136.169 58.8792 136.255 58.7493 136.298 58.6194C136.212 58.7493 136.169 58.8792 136.126 59.009ZM133.626 61.6934C133.798 61.5635 133.927 61.4768 134.057 61.3469C133.927 61.4768 133.798 61.6067 133.626 61.6934ZM134.38 61.0869C134.326 61.1304 134.272 61.1736 134.229 61.217C134.359 61.1304 134.445 61.0439 134.531 60.9573C134.519 60.9695 134.505 60.9817 134.492 60.9939L134.47 61.0129C134.441 61.0376 134.411 61.0623 134.38 61.0869ZM132.591 58.4895L132.677 58.4028C132.634 58.4028 132.634 58.446 132.591 58.4895ZM132.893 58.1001C132.936 58.0569 132.936 58.0134 132.979 57.9702C132.936 58.0134 132.893 58.0569 132.893 58.1001ZM133.087 57.6887C133.076 57.7104 133.065 57.7319 133.065 57.7537C133.065 57.7537 133.108 57.7104 133.108 57.6238L133.108 57.634L133.105 57.6472C133.101 57.6611 133.094 57.6748 133.087 57.6887ZM133.195 57.4072C133.195 57.3855 133.205 57.3745 133.216 57.3635C133.227 57.3528 133.238 57.342 133.238 57.3206L133.237 57.3447L133.237 57.3545C133.235 57.3752 133.231 57.3928 133.217 57.4016C133.214 57.4038 133.209 57.4055 133.205 57.4065L133.195 57.4072ZM121.167 62.9055C121.124 62.6458 121.081 62.3428 121.038 62.083C121.124 62.3428 121.167 62.6458 121.167 62.9055ZM119.879 57.103C119.894 57.1484 119.906 57.1926 119.917 57.2341L119.896 57.1467C119.858 56.9919 119.816 56.8164 119.744 56.6714C119.766 56.7578 119.798 56.8552 119.83 56.9526C119.847 57.0032 119.864 57.0537 119.879 57.103ZM100.948 64.9836C101.078 64.9836 101.207 65.0269 101.336 65.0703C101.208 65.0703 101.079 65.0273 100.951 64.9844L100.948 64.9836ZM121.469 65.9792C121.555 65.9792 121.684 65.936 121.77 65.936C121.641 65.936 121.555 65.936 121.469 65.9792ZM135.213 60.2605L135.264 60.1997C135.318 60.1348 135.372 60.0698 135.436 60.0049C135.307 60.178 135.221 60.2646 135.091 60.3945C135.136 60.3499 135.175 60.3052 135.213 60.2605Z" fill="black"/>
<path d="M109.096 67.7109C110.562 67.8408 112.071 67.8841 113.58 67.8841C115.088 67.8841 116.597 67.7975 118.063 67.7109C118.063 74.2914 116.123 79.4865 113.58 79.4865C111.079 79.5298 109.096 74.3347 109.096 67.7109C109.096 67.7542 109.096 67.7542 109.096 67.7109Z" fill="black"/>
</svg>
